<?xml version="1.0" encoding="utf-8"?>
<!DOCTYPE svg PUBLIC "-//W3C//DTD SVG 1.1//EN" "http://www.w3.org/Graphics/SVG/1.1/DTD/svg11.dtd">
<svg version="1.1" id="Layer_1" xmlns="http://www.w3.org/2000/svg" xmlns:xlink="http://www.w3.org/1999/xlink" x="0px" y="0px"
	 viewBox="0 0 1718.004 1642.1809" enable-background="new 0 0 1718.004 1642.1809" xml:space="preserve">
<g>
	<g enable-background="new    ">
		<g>
			<g enable-background="new    ">
				<defs>
					<polygon id="SVGID_1_" enable-background="new    " points="848.3772,483.5629 1700.4519,254.8565 1698.3311,1396.697 
						846.2563,1625.4034 					"/>
				</defs>
				<clipPath id="SVGID_2_">
					<use xlink:href="#SVGID_1_"  overflow="visible"/>
				</clipPath>
				<g clip-path="url(#SVGID_2_)">
					<polyline fill="#C7B299" points="1700.3734,330.7002 1700.5149,254.5349 1643.7031,269.7838 1643.5616,345.9491 
						1700.3734,330.7002 					"/>
					<polyline fill="#009245" points="1700.2319,406.8585 1700.3734,330.7002 1643.5616,345.9491 1643.4203,422.1074 
						1700.2319,406.8585 					"/>
					<polyline fill="#C1272D" points="1700.0906,483.0233 1700.2319,406.8585 1643.4203,422.1074 1643.2788,498.2722 
						1700.0906,483.0233 					"/>
					<polyline fill="#F7931E" points="1699.9491,559.1886 1700.0906,483.0233 1643.2788,498.2722 1643.1373,574.4375 
						1699.9491,559.1886 					"/>
					<polyline fill="#C69C6D" points="1699.8076,635.3535 1699.9491,559.1886 1643.1373,574.4375 1642.9958,650.6024 
						1699.8076,635.3535 					"/>
					<polyline fill="#2E3192" points="1699.6661,711.5118 1699.8076,635.3535 1642.9958,650.6024 1642.8544,726.7607 
						1699.6661,711.5118 					"/>
					<polyline fill="#754C24" points="1699.5247,787.677 1699.6661,711.5118 1642.8544,726.7607 1642.7129,802.9259 
						1699.5247,787.677 					"/>
					<polyline fill="#FCEE21" points="1699.3832,863.8419 1699.5247,787.677 1642.7129,802.9259 1642.5714,879.0908 
						1699.3832,863.8419 					"/>
					<polyline fill="#00A99D" points="1699.2417,940.0072 1699.3832,863.8419 1642.5714,879.0908 1642.4299,955.2561 
						1699.2417,940.0072 					"/>
					<polyline fill="#534741" points="1699.1002,1016.1721 1699.2417,940.0072 1642.4299,955.2561 1642.2885,1031.421 
						1699.1002,1016.1721 					"/>
					<polyline fill="#93278F" points="1698.9587,1092.3303 1699.1002,1016.1721 1642.2885,1031.421 1642.1471,1107.5792 
						1698.9587,1092.3303 					"/>
					<polyline fill="#603813" points="1698.8173,1168.4956 1698.9587,1092.3303 1642.1471,1107.5792 1642.0056,1183.7445 
						1698.8173,1168.4956 					"/>
					<polyline fill="#FFFF00" points="1698.6759,1244.6605 1698.8173,1168.4956 1642.0056,1183.7445 1641.8641,1259.9094 
						1698.6759,1244.6605 					"/>
					<polyline fill="#F15A24" points="1698.5344,1320.8258 1698.6759,1244.6605 1641.8641,1259.9094 1641.7227,1336.0747 
						1698.5344,1320.8258 					"/>
					<polyline fill="#FFFF00" points="1698.3929,1396.984 1698.5344,1320.8258 1641.7227,1336.0747 1641.5812,1412.2329 
						1698.3929,1396.984 					"/>
					<polyline fill="#00FFFF" points="1643.5616,345.9491 1643.7031,269.7838 1586.8915,285.0328 1586.75,361.198 
						1643.5616,345.9491 					"/>
					<polyline fill="#FF0000" points="1643.4203,422.1074 1643.5616,345.9491 1586.75,361.198 1586.6085,437.3563 
						1643.4203,422.1074 					"/>
					<polyline fill="#C7B299" points="1643.2788,498.2722 1643.4203,422.1074 1586.6085,437.3563 1586.467,513.5212 
						1643.2788,498.2722 					"/>
					<polyline points="1643.1373,574.4375 1643.2788,498.2722 1586.467,513.5212 1586.3256,589.6865 1643.1373,574.4375 					"/>
					<polyline fill="#00A99D" points="1642.9958,650.6024 1643.1373,574.4375 1586.3256,589.6865 1586.1841,665.8513 
						1642.9958,650.6024 					"/>
					<polyline fill="#C69C6D" points="1642.8544,726.7607 1642.9958,650.6024 1586.1841,665.8513 1586.0426,742.0096 
						1642.8544,726.7607 					"/>
					<polyline fill="#FCEE21" points="1642.7129,802.9259 1642.8544,726.7607 1586.0426,742.0096 1585.9011,818.1749 
						1642.7129,802.9259 					"/>
					<polyline fill="#4D4D4D" points="1642.5714,879.0908 1642.7129,802.9259 1585.9011,818.1749 1585.7596,894.3397 
						1642.5714,879.0908 					"/>
					<polyline fill="#C69C6D" points="1642.4299,955.2561 1642.5714,879.0908 1585.7596,894.3397 1585.6183,970.505 
						1642.4299,955.2561 					"/>
					<polyline fill="#FF00FF" points="1642.2885,1031.421 1642.4299,955.2561 1585.6183,970.505 1585.4768,1046.6699 
						1642.2885,1031.421 					"/>
					<polyline fill="#A67C52" points="1642.1471,1107.5792 1642.2885,1031.421 1585.4768,1046.6699 1585.3353,1122.8281 
						1642.1471,1107.5792 					"/>
					<polyline fill="#FF1D25" points="1642.0056,1183.7445 1642.1471,1107.5792 1585.3353,1122.8281 1585.1938,1198.9934 
						1642.0056,1183.7445 					"/>
					<polyline fill="#FF1D25" points="1641.8641,1259.9094 1642.0056,1183.7445 1585.1938,1198.9934 1585.0524,1275.1583 
						1641.8641,1259.9094 					"/>
					<polyline fill="#1B1464" points="1641.7227,1336.0747 1641.8641,1259.9094 1585.0524,1275.1583 1584.9109,1351.3236 
						1641.7227,1336.0747 					"/>
					<polyline fill="#C7B299" points="1641.5812,1412.2329 1641.7227,1336.0747 1584.9109,1351.3236 1584.7694,1427.4818 
						1641.5812,1412.2329 					"/>
					<polyline fill="#D4145A" points="1586.75,361.198 1586.8915,285.0328 1530.0743,300.2831 1529.9329,376.4484 1586.75,361.198 
											"/>
					<polyline fill="#FF1D25" points="1586.6085,437.3563 1586.75,361.198 1529.9329,376.4484 1529.7914,452.6066 
						1586.6085,437.3563 					"/>
					<polyline fill="#8CC63F" points="1586.467,513.5212 1586.6085,437.3563 1529.7914,452.6066 1529.6499,528.7715 
						1586.467,513.5212 					"/>
					<polyline fill="#662D91" points="1586.3256,589.6865 1586.467,513.5212 1529.6499,528.7715 1529.5084,604.9368 
						1586.3256,589.6865 					"/>
					<polyline fill="#754C24" points="1586.1841,665.8513 1586.3256,589.6865 1529.5084,604.9368 1529.3669,681.1017 
						1586.1841,665.8513 					"/>
					<polyline fill="#0071BC" points="1586.0426,742.0096 1586.1841,665.8513 1529.3669,681.1017 1529.2255,757.2599 
						1586.0426,742.0096 					"/>
					<polyline fill="#0071BC" points="1585.9011,818.1749 1586.0426,742.0096 1529.2255,757.2599 1529.0841,833.4252 
						1585.9011,818.1749 					"/>
					<polyline fill="#F15A24" points="1585.7596,894.3397 1585.9011,818.1749 1529.0841,833.4252 1528.9426,909.5901 
						1585.7596,894.3397 					"/>
					<polyline fill="#93278F" points="1585.6183,970.505 1585.7596,894.3397 1528.9426,909.5901 1528.8011,985.7554 
						1585.6183,970.505 					"/>
					<polyline fill="#808080" points="1585.4768,1046.6699 1585.6183,970.505 1528.8011,985.7554 1528.6597,1061.9203 
						1585.4768,1046.6699 					"/>
					<polyline fill="#F15A24" points="1585.3353,1122.8281 1585.4768,1046.6699 1528.6597,1061.9203 1528.5182,1138.0785 
						1585.3353,1122.8281 					"/>
					<polyline fill="#FCEE21" points="1585.1938,1198.9934 1585.3353,1122.8281 1528.5182,1138.0785 1528.3767,1214.2438 
						1585.1938,1198.9934 					"/>
					<polyline fill="#C69C6D" points="1585.0524,1275.1583 1585.1938,1198.9934 1528.3767,1214.2438 1528.2352,1290.4087 
						1585.0524,1275.1583 					"/>
					<polyline fill="#93278F" points="1584.9109,1351.3236 1585.0524,1275.1583 1528.2352,1290.4087 1528.0938,1366.574 
						1584.9109,1351.3236 					"/>
					<polyline fill="#00FF00" points="1584.7694,1427.4818 1584.9109,1351.3236 1528.0938,1366.574 1527.9523,1442.7322 
						1584.7694,1427.4818 					"/>
					<polyline fill="#754C24" points="1529.9329,376.4484 1530.0743,300.2831 1473.2626,315.532 1473.1211,391.6973 
						1529.9329,376.4484 					"/>
					<polyline fill="#C7B299" points="1529.7914,452.6066 1529.9329,376.4484 1473.1211,391.6973 1472.9796,467.8555 
						1529.7914,452.6066 					"/>
					<polyline fill="#00A99D" points="1529.6499,528.7715 1529.7914,452.6066 1472.9796,467.8555 1472.8381,544.0204 
						1529.6499,528.7715 					"/>
					<polyline fill="#00FFFF" points="1529.5084,604.9368 1529.6499,528.7715 1472.8381,544.0204 1472.6967,620.1857 
						1529.5084,604.9368 					"/>
					<polyline fill="#FCEE21" points="1529.3669,681.1017 1529.5084,604.9368 1472.6967,620.1857 1472.5553,696.3506 
						1529.3669,681.1017 					"/>
					<polyline fill="#2E3192" points="1529.2255,757.2599 1529.3669,681.1017 1472.5553,696.3506 1472.4138,772.5089 
						1529.2255,757.2599 					"/>
					<polyline fill="#662D91" points="1529.0841,833.4252 1529.2255,757.2599 1472.4138,772.5089 1472.2723,848.6741 
						1529.0841,833.4252 					"/>
					<polyline fill="#808080" points="1528.9426,909.5901 1529.0841,833.4252 1472.2723,848.6741 1472.1309,924.839 
						1528.9426,909.5901 					"/>
					<polyline fill="#F7931E" points="1528.8011,985.7554 1528.9426,909.5901 1472.1309,924.839 1471.9894,1001.0043 
						1528.8011,985.7554 					"/>
					<polyline fill="#F7931E" points="1528.6597,1061.9203 1528.8011,985.7554 1471.9894,1001.0043 1471.8479,1077.1692 
						1528.6597,1061.9203 					"/>
					<polyline fill="#FFFF00" points="1528.5182,1138.0785 1528.6597,1061.9203 1471.8479,1077.1692 1471.7064,1153.3274 
						1528.5182,1138.0785 					"/>
					<polyline fill="#ED1C24" points="1528.3767,1214.2438 1528.5182,1138.0785 1471.7064,1153.3274 1471.5649,1229.4927 
						1528.3767,1214.2438 					"/>
					<polyline fill="#D9E021" points="1528.2352,1290.4087 1528.3767,1214.2438 1471.5649,1229.4927 1471.4235,1305.6576 
						1528.2352,1290.4087 					"/>
					<polyline fill="#39B54A" points="1528.0938,1366.574 1528.2352,1290.4087 1471.4235,1305.6576 1471.282,1381.8229 
						1528.0938,1366.574 					"/>
					<polyline fill="#FF0000" points="1527.9523,1442.7322 1528.0938,1366.574 1471.282,1381.8229 1471.1406,1457.9811 
						1527.9523,1442.7322 					"/>
					<polyline fill="#39B54A" points="1473.1211,391.6973 1473.2626,315.532 1416.4508,330.7809 1416.3093,406.9462 
						1473.1211,391.6973 					"/>
					<polyline fill="#22B573" points="1472.9796,467.8555 1473.1211,391.6973 1416.3093,406.9462 1416.1678,483.1044 
						1472.9796,467.8555 					"/>
					<polyline fill="#22B573" points="1472.8381,544.0204 1472.9796,467.8555 1416.1678,483.1044 1416.0265,559.2693 
						1472.8381,544.0204 					"/>
					<polyline fill="#29ABE2" points="1472.6967,620.1857 1472.8381,544.0204 1416.0265,559.2693 1415.885,635.4346 
						1472.6967,620.1857 					"/>
					<polyline fill="#7AC943" points="1472.5553,696.3506 1472.6967,620.1857 1415.885,635.4346 1415.7435,711.5995 
						1472.5553,696.3506 					"/>
					<polyline fill="#736357" points="1472.4138,772.5089 1472.5553,696.3506 1415.7435,711.5995 1415.6021,787.7578 
						1472.4138,772.5089 					"/>
					<polyline fill="#C69C6D" points="1472.2723,848.6741 1472.4138,772.5089 1415.6021,787.7578 1415.4606,863.923 
						1472.2723,848.6741 					"/>
					<polyline fill="#FF931E" points="1472.1309,924.839 1472.2723,848.6741 1415.4606,863.923 1415.3191,940.0879 
						1472.1309,924.839 					"/>
					<polyline fill="#754C24" points="1471.9894,1001.0043 1472.1309,924.839 1415.3191,940.0879 1415.1776,1016.2532 
						1471.9894,1001.0043 					"/>
					<polyline fill="#603813" points="1471.8479,1077.1692 1471.9894,1001.0043 1415.1776,1016.2532 1415.0361,1092.4181 
						1471.8479,1077.1692 					"/>
					<polyline fill="#F15A24" points="1471.7064,1153.3274 1471.8479,1077.1692 1415.0361,1092.4181 1414.8947,1168.5763 
						1471.7064,1153.3274 					"/>
					<polyline fill="#00FF00" points="1471.5649,1229.4927 1471.7064,1153.3274 1414.8947,1168.5763 1414.7533,1244.7416 
						1471.5649,1229.4927 					"/>
					<polyline fill="#009245" points="1471.4235,1305.6576 1471.5649,1229.4927 1414.7533,1244.7416 1414.6118,1320.9065 
						1471.4235,1305.6576 					"/>
					<polyline fill="#93278F" points="1471.282,1381.8229 1471.4235,1305.6576 1414.6118,1320.9065 1414.4703,1397.0718 
						1471.282,1381.8229 					"/>
					<polyline points="1471.1406,1457.9811 1471.282,1381.8229 1414.4703,1397.0718 1414.3289,1473.23 1471.1406,1457.9811 					"/>
					<polyline fill="#ED1E79" points="1416.3093,406.9462 1416.4508,330.7809 1359.634,346.0312 1359.4926,422.1965 
						1416.3093,406.9462 					"/>
					<polyline fill="#999999" points="1416.1678,483.1044 1416.3093,406.9462 1359.4926,422.1965 1359.3511,498.3547 
						1416.1678,483.1044 					"/>
					<polyline fill="#FF7BAC" points="1416.0265,559.2693 1416.1678,483.1044 1359.3511,498.3547 1359.2096,574.5196 
						1416.0265,559.2693 					"/>
					<polyline fill="#662D91" points="1415.885,635.4346 1416.0265,559.2693 1359.2096,574.5196 1359.0681,650.6849 
						1415.885,635.4346 					"/>
					<polyline fill="#9E005D" points="1415.7435,711.5995 1415.885,635.4346 1359.0681,650.6849 1358.9266,726.8498 
						1415.7435,711.5995 					"/>
					<polyline fill="#998675" points="1415.6021,787.7578 1415.7435,711.5995 1358.9266,726.8498 1358.7852,803.008 
						1415.6021,787.7578 					"/>
					<polyline fill="#B3B3B3" points="1415.4606,863.923 1415.6021,787.7578 1358.7852,803.008 1358.6438,879.1733 
						1415.4606,863.923 					"/>
					<polyline fill="#22B573" points="1415.3191,940.0879 1415.4606,863.923 1358.6438,879.1733 1358.5023,955.3382 
						1415.3191,940.0879 					"/>
					<polyline fill="#00FFFF" points="1415.1776,1016.2532 1415.3191,940.0879 1358.5023,955.3382 1358.3608,1031.5034 
						1415.1776,1016.2532 					"/>
					<polyline fill="#8CC63F" points="1415.0361,1092.4181 1415.1776,1016.2532 1358.3608,1031.5034 1358.2194,1107.6683 
						1415.0361,1092.4181 					"/>
					<polyline fill="#009245" points="1414.8947,1168.5763 1415.0361,1092.4181 1358.2194,1107.6683 1358.0779,1183.8265 
						1414.8947,1168.5763 					"/>
					<polyline fill="#FF7BAC" points="1414.7533,1244.7416 1414.8947,1168.5763 1358.0779,1183.8265 1357.9364,1259.9918 
						1414.7533,1244.7416 					"/>
					<polyline fill="#3FA9F5" points="1414.6118,1320.9065 1414.7533,1244.7416 1357.9364,1259.9918 1357.7949,1336.1567 
						1414.6118,1320.9065 					"/>
					<polyline fill="#7AC943" points="1414.4703,1397.0718 1414.6118,1320.9065 1357.7949,1336.1567 1357.6534,1412.322 
						1414.4703,1397.0718 					"/>
					<polyline fill="#006837" points="1414.3289,1473.23 1414.4703,1397.0718 1357.6534,1412.322 1357.512,1488.4802 
						1414.3289,1473.23 					"/>
					<polyline fill="#D4145A" points="1359.4926,422.1965 1359.634,346.0312 1302.8223,361.2801 1302.6808,437.4454 
						1359.4926,422.1965 					"/>
					<polyline fill="#998675" points="1359.3511,498.3547 1359.4926,422.1965 1302.6808,437.4454 1302.5393,513.6036 
						1359.3511,498.3547 					"/>
					<polyline fill="#534741" points="1359.2096,574.5196 1359.3511,498.3547 1302.5393,513.6036 1302.3978,589.7685 
						1359.2096,574.5196 					"/>
					<polyline fill="#999999" points="1359.0681,650.6849 1359.2096,574.5196 1302.3978,589.7685 1302.2563,665.9338 
						1359.0681,650.6849 					"/>
					<polyline fill="#009245" points="1358.9266,726.8498 1359.0681,650.6849 1302.2563,665.9338 1302.1149,742.0987 
						1358.9266,726.8498 					"/>
					<polyline fill="#39B54A" points="1358.7852,803.008 1358.9266,726.8498 1302.1149,742.0987 1301.9735,818.2569 
						1358.7852,803.008 					"/>
					<polyline fill="#FCEE21" points="1358.6438,879.1733 1358.7852,803.008 1301.9735,818.2569 1301.832,894.4222 
						1358.6438,879.1733 					"/>
					<polyline fill="#8CC63F" points="1358.5023,955.3382 1358.6438,879.1733 1301.832,894.4222 1301.6906,970.5871 
						1358.5023,955.3382 					"/>
					<polyline fill="#FCEE21" points="1358.3608,1031.5034 1358.5023,955.3382 1301.6906,970.5871 1301.5491,1046.7523 
						1358.3608,1031.5034 					"/>
					<polyline fill="#FF00FF" points="1358.2194,1107.6683 1358.3608,1031.5034 1301.5491,1046.7523 1301.4076,1122.9172 
						1358.2194,1107.6683 					"/>
					<polyline fill="#603813" points="1358.0779,1183.8265 1358.2194,1107.6683 1301.4076,1122.9172 1301.2661,1199.0754 
						1358.0779,1183.8265 					"/>
					<polyline fill="#39B54A" points="1357.9364,1259.9918 1358.0779,1183.8265 1301.2661,1199.0754 1301.1246,1275.2407 
						1357.9364,1259.9918 					"/>
					<polyline fill="#666666" points="1357.7949,1336.1567 1357.9364,1259.9918 1301.1246,1275.2407 1300.9832,1351.4056 
						1357.7949,1336.1567 					"/>
					<polyline fill="#F15A24" points="1357.6534,1412.322 1357.7949,1336.1567 1300.9832,1351.4056 1300.8417,1427.5709 
						1357.6534,1412.322 					"/>
					<polyline fill="#D4145A" points="1357.512,1488.4802 1357.6534,1412.322 1300.8417,1427.5709 1300.7003,1503.7291 
						1357.512,1488.4802 					"/>
					<polyline fill="#00FFFF" points="1302.6808,437.4454 1302.8223,361.2801 1246.0105,376.529 1245.869,452.6943 
						1302.6808,437.4454 					"/>
					<polyline fill="#FBB03B" points="1302.5393,513.6036 1302.6808,437.4454 1245.869,452.6943 1245.7275,528.8525 
						1302.5393,513.6036 					"/>
					<polyline fill="#7AC943" points="1302.3978,589.7685 1302.5393,513.6036 1245.7275,528.8525 1245.5861,605.0175 
						1302.3978,589.7685 					"/>
					<polyline fill="#333333" points="1302.2563,665.9338 1302.3978,589.7685 1245.5861,605.0175 1245.4447,681.1827 
						1302.2563,665.9338 					"/>
					<polyline points="1302.1149,742.0987 1302.2563,665.9338 1245.4447,681.1827 1245.3032,757.3476 1302.1149,742.0987 					"/>
					<polyline fill="#754C24" points="1301.9735,818.2569 1302.1149,742.0987 1245.3032,757.3476 1245.1617,833.5059 
						1301.9735,818.2569 					"/>
					<polyline fill="#998675" points="1301.832,894.4222 1301.9735,818.2569 1245.1617,833.5059 1245.0203,909.6711 
						1301.832,894.4222 					"/>
					<polyline fill="#00FF00" points="1301.6906,970.5871 1301.832,894.4222 1245.0203,909.6711 1244.8788,985.836 
						1301.6906,970.5871 					"/>
					<polyline fill="#FF7BAC" points="1301.5491,1046.7523 1301.6906,970.5871 1244.8788,985.836 1244.7373,1062.0012 
						1301.5491,1046.7523 					"/>
					<polyline fill="#666666" points="1301.4076,1122.9172 1301.5491,1046.7523 1244.7373,1062.0012 1244.5958,1138.1661 
						1301.4076,1122.9172 					"/>
					<polyline fill="#D9E021" points="1301.2661,1199.0754 1301.4076,1122.9172 1244.5958,1138.1661 1244.4543,1214.3243 
						1301.2661,1199.0754 					"/>
					<polyline fill="#C69C6D" points="1301.1246,1275.2407 1301.2661,1199.0754 1244.4543,1214.3243 1244.3129,1290.4896 
						1301.1246,1275.2407 					"/>
					<polyline fill="#F15A24" points="1300.9832,1351.4056 1301.1246,1275.2407 1244.3129,1290.4896 1244.1715,1366.6545 
						1300.9832,1351.4056 					"/>
					<polyline fill="#D9E021" points="1300.8417,1427.5709 1300.9832,1351.4056 1244.1715,1366.6545 1244.03,1442.8198 
						1300.8417,1427.5709 					"/>
					<polyline fill="#0071BC" points="1300.7003,1503.7291 1300.8417,1427.5709 1244.03,1442.8198 1243.8885,1518.978 
						1300.7003,1503.7291 					"/>
					<polyline fill="#D9E021" points="1245.869,452.6943 1246.0105,376.529 1189.1937,391.7793 1189.0522,467.9445 
						1245.869,452.6943 					"/>
					<polyline fill="#736357" points="1245.7275,528.8525 1245.869,452.6943 1189.0522,467.9445 1188.9108,544.1028 
						1245.7275,528.8525 					"/>
					<polyline fill="#C1272D" points="1245.5861,605.0175 1245.7275,528.8525 1188.9108,544.1028 1188.7693,620.2677 
						1245.5861,605.0175 					"/>
					<polyline fill="#8CC63F" points="1245.4447,681.1827 1245.5861,605.0175 1188.7693,620.2677 1188.6278,696.433 
						1245.4447,681.1827 					"/>
					<polyline fill="#736357" points="1245.3032,757.3476 1245.4447,681.1827 1188.6278,696.433 1188.4863,772.5978 
						1245.3032,757.3476 					"/>
					<polyline fill="#ED1C24" points="1245.1617,833.5059 1245.3032,757.3476 1188.4863,772.5978 1188.3448,848.7561 
						1245.1617,833.5059 					"/>
					<polyline fill="#29ABE2" points="1245.0203,909.6711 1245.1617,833.5059 1188.3448,848.7561 1188.2034,924.9214 
						1245.0203,909.6711 					"/>
					<polyline fill="#8C6239" points="1244.8788,985.836 1245.0203,909.6711 1188.2034,924.9214 1188.062,1001.0862 
						1244.8788,985.836 					"/>
					<polyline fill="#9E005D" points="1244.7373,1062.0012 1244.8788,985.836 1188.062,1001.0862 1187.9205,1077.2516 
						1244.7373,1062.0012 					"/>
					<polyline fill="#808080" points="1244.5958,1138.1661 1244.7373,1062.0012 1187.9205,1077.2516 1187.7791,1153.4164 
						1244.5958,1138.1661 					"/>
					<polyline fill="#FCEE21" points="1244.4543,1214.3243 1244.5958,1138.1661 1187.7791,1153.4164 1187.6376,1229.5747 
						1244.4543,1214.3243 					"/>
					<polyline fill="#9E005D" points="1244.3129,1290.4896 1244.4543,1214.3243 1187.6376,1229.5747 1187.4961,1305.74 
						1244.3129,1290.4896 					"/>
					<polyline fill="#999999" points="1244.1715,1366.6545 1244.3129,1290.4896 1187.4961,1305.74 1187.3546,1381.9048 
						1244.1715,1366.6545 					"/>
					<polyline fill="#29ABE2" points="1244.03,1442.8198 1244.1715,1366.6545 1187.3546,1381.9048 1187.2131,1458.0701 
						1244.03,1442.8198 					"/>
					<polyline fill="#999999" points="1243.8885,1518.978 1244.03,1442.8198 1187.2131,1458.0701 1187.0717,1534.2284 
						1243.8885,1518.978 					"/>
					<polyline points="1189.0522,467.9445 1189.1937,391.7793 1132.382,407.0282 1132.2405,483.1935 1189.0522,467.9445 					"/>
					<polyline fill="#666666" points="1188.9108,544.1028 1189.0522,467.9445 1132.2405,483.1935 1132.099,559.3517 
						1188.9108,544.1028 					"/>
					<polyline fill="#998675" points="1188.7693,620.2677 1188.9108,544.1028 1132.099,559.3517 1131.9575,635.5166 
						1188.7693,620.2677 					"/>
					<polyline fill="#754C24" points="1188.6278,696.433 1188.7693,620.2677 1131.9575,635.5166 1131.816,711.6819 
						1188.6278,696.433 					"/>
					<polyline fill="#006837" points="1188.4863,772.5978 1188.6278,696.433 1131.816,711.6819 1131.6746,787.8468 
						1188.4863,772.5978 					"/>
					<polyline fill="#9E005D" points="1188.3448,848.7561 1188.4863,772.5978 1131.6746,787.8468 1131.5332,864.005 
						1188.3448,848.7561 					"/>
					<polyline fill="#39B54A" points="1188.2034,924.9214 1188.3448,848.7561 1131.5332,864.005 1131.3917,940.1703 
						1188.2034,924.9214 					"/>
					<polyline fill="#006837" points="1188.062,1001.0862 1188.2034,924.9214 1131.3917,940.1703 1131.2502,1016.3352 
						1188.062,1001.0862 					"/>
					<polyline fill="#7AC943" points="1187.9205,1077.2516 1188.062,1001.0862 1131.2502,1016.3352 1131.1088,1092.5005 
						1187.9205,1077.2516 					"/>
					<polyline fill="#00FFFF" points="1187.7791,1153.4164 1187.9205,1077.2516 1131.1088,1092.5005 1130.9673,1168.6653 
						1187.7791,1153.4164 					"/>
					<polyline fill="#736357" points="1187.6376,1229.5747 1187.7791,1153.4164 1130.9673,1168.6653 1130.8258,1244.8236 
						1187.6376,1229.5747 					"/>
					<polyline fill="#29ABE2" points="1187.4961,1305.74 1187.6376,1229.5747 1130.8258,1244.8236 1130.6843,1320.9889 
						1187.4961,1305.74 					"/>
					<polyline fill="#2E3192" points="1187.3546,1381.9048 1187.4961,1305.74 1130.6843,1320.9889 1130.5428,1397.1537 
						1187.3546,1381.9048 					"/>
					<polyline fill="#FF00FF" points="1187.2131,1458.0701 1187.3546,1381.9048 1130.5428,1397.1537 1130.4014,1473.319 
						1187.2131,1458.0701 					"/>
					<polyline fill="#B3B3B3" points="1187.0717,1534.2284 1187.2131,1458.0701 1130.4014,1473.319 1130.26,1549.4773 
						1187.0717,1534.2284 					"/>
					<polyline fill="#ED1E79" points="1132.2405,483.1935 1132.382,407.0282 1075.5702,422.2771 1075.4287,498.4424 
						1132.2405,483.1935 					"/>
					<polyline fill="#8C6239" points="1132.099,559.3517 1132.2405,483.1935 1075.4287,498.4424 1075.2872,574.6006 
						1132.099,559.3517 					"/>
					<polyline fill="#0071BC" points="1131.9575,635.5166 1132.099,559.3517 1075.2872,574.6006 1075.1458,650.7655 
						1131.9575,635.5166 					"/>
					<polyline fill="#F15A24" points="1131.816,711.6819 1131.9575,635.5166 1075.1458,650.7655 1075.0044,726.9308 
						1131.816,711.6819 					"/>
					<polyline fill="#CCCCCC" points="1131.6746,787.8468 1131.816,711.6819 1075.0044,726.9308 1074.8629,803.0957 
						1131.6746,787.8468 					"/>
					<polyline fill="#39B54A" points="1131.5332,864.005 1131.6746,787.8468 1074.8629,803.0957 1074.7214,879.2539 
						1131.5332,864.005 					"/>
					<polyline fill="#3FA9F5" points="1131.3917,940.1703 1131.5332,864.005 1074.7214,879.2539 1074.58,955.4192 
						1131.3917,940.1703 					"/>
					<polyline fill="#736357" points="1131.2502,1016.3352 1131.3917,940.1703 1074.58,955.4192 1074.4385,1031.5841 
						1131.2502,1016.3352 					"/>
					<polyline fill="#7AC943" points="1131.1088,1092.5005 1131.2502,1016.3352 1074.4385,1031.5841 1074.297,1107.7494 
						1131.1088,1092.5005 					"/>
					<polyline fill="#ED1E79" points="1130.9673,1168.6653 1131.1088,1092.5005 1074.297,1107.7494 1074.1555,1183.9143 
						1130.9673,1168.6653 					"/>
					<polyline fill="#00FF00" points="1130.8258,1244.8236 1130.9673,1168.6653 1074.1555,1183.9143 1074.014,1260.0725 
						1130.8258,1244.8236 					"/>
					<polyline fill="#22B573" points="1130.6843,1320.9889 1130.8258,1244.8236 1074.014,1260.0725 1073.8726,1336.2378 
						1130.6843,1320.9889 					"/>
					<polyline fill="#00A99D" points="1130.5428,1397.1537 1130.6843,1320.9889 1073.8726,1336.2378 1073.7311,1412.4027 
						1130.5428,1397.1537 					"/>
					<polyline fill="#CCCCCC" points="1130.4014,1473.319 1130.5428,1397.1537 1073.7311,1412.4027 1073.5897,1488.5679 
						1130.4014,1473.319 					"/>
					<polyline fill="#00A99D" points="1130.26,1549.4773 1130.4014,1473.319 1073.5897,1488.5679 1073.4482,1564.7262 
						1130.26,1549.4773 					"/>
					<polyline fill="#998675" points="1075.4287,498.4424 1075.5702,422.2771 1018.7534,437.5274 1018.6119,513.6926 
						1075.4287,498.4424 					"/>
					<polyline fill="#7AC943" points="1075.2872,574.6006 1075.4287,498.4424 1018.6119,513.6926 1018.4705,589.8509 
						1075.2872,574.6006 					"/>
					<polyline fill="#2E3192" points="1075.1458,650.7655 1075.2872,574.6006 1018.4705,589.8509 1018.329,666.0158 
						1075.1458,650.7655 					"/>
					<polyline fill="#FF0000" points="1075.0044,726.9308 1075.1458,650.7655 1018.329,666.0158 1018.1875,742.181 
						1075.0044,726.9308 					"/>
					<polyline fill="#B3B3B3" points="1074.8629,803.0957 1075.0044,726.9308 1018.1875,742.181 1018.046,818.3459 
						1074.8629,803.0957 					"/>
					<polyline fill="#009245" points="1074.7214,879.2539 1074.8629,803.0957 1018.046,818.3459 1017.9046,894.5042 
						1074.7214,879.2539 					"/>
					<polyline fill="#662D91" points="1074.58,955.4192 1074.7214,879.2539 1017.9046,894.5042 1017.7631,970.6695 
						1074.58,955.4192 					"/>
					<polyline fill="#B3B3B3" points="1074.4385,1031.5841 1074.58,955.4192 1017.7631,970.6695 1017.6216,1046.8344 
						1074.4385,1031.5841 					"/>
					<polyline fill="#8C6239" points="1074.297,1107.7494 1074.4385,1031.5841 1017.6216,1046.8344 1017.4802,1122.9996 
						1074.297,1107.7494 					"/>
					<polyline fill="#CCCCCC" points="1074.1555,1183.9143 1074.297,1107.7494 1017.4802,1122.9996 1017.3387,1199.1646 
						1074.1555,1183.9143 					"/>
					<polyline fill="#39B54A" points="1074.014,1260.0725 1074.1555,1183.9143 1017.3387,1199.1646 1017.1973,1275.3228 
						1074.014,1260.0725 					"/>
					<polyline fill="#C7B299" points="1073.8726,1336.2378 1074.014,1260.0725 1017.1973,1275.3228 1017.0558,1351.488 
						1073.8726,1336.2378 					"/>
					<polyline points="1073.7311,1412.4027 1073.8726,1336.2378 1017.0558,1351.488 1016.9143,1427.653 1073.7311,1412.4027 					
						"/>
					<polyline fill="#D4145A" points="1073.5897,1488.5679 1073.7311,1412.4027 1016.9143,1427.653 1016.7728,1503.8182 
						1073.5897,1488.5679 					"/>
					<polyline fill="#9E005D" points="1073.4482,1564.7262 1073.5897,1488.5679 1016.7728,1503.8182 1016.6314,1579.9764 
						1073.4482,1564.7262 					"/>
					<polyline fill="#B3B3B3" points="1018.6119,513.6926 1018.7534,437.5274 961.9417,452.7763 961.8002,528.9416 
						1018.6119,513.6926 					"/>
					<polyline fill="#1A1A1A" points="1018.4705,589.8509 1018.6119,513.6926 961.8002,528.9416 961.6587,605.0998 
						1018.4705,589.8509 					"/>
					<polyline fill="#00FFFF" points="1018.329,666.0158 1018.4705,589.8509 961.6587,605.0998 961.5172,681.2647 
						1018.329,666.0158 					"/>
					<polyline fill="#736357" points="1018.1875,742.181 1018.329,666.0158 961.5172,681.2647 961.3757,757.43 1018.1875,742.181 
											"/>
					<polyline fill="#1A1A1A" points="1018.046,818.3459 1018.1875,742.181 961.3757,757.43 961.2343,833.5948 1018.046,818.3459 
											"/>
					<polyline points="1017.9046,894.5042 1018.046,818.3459 961.2343,833.5948 961.0928,909.7531 1017.9046,894.5042 					"/>
					<polyline fill="#CCCCCC" points="1017.7631,970.6695 1017.9046,894.5042 961.0928,909.7531 960.9514,985.9184 
						1017.7631,970.6695 					"/>
					<polyline fill="#C69C6D" points="1017.6216,1046.8344 1017.7631,970.6695 960.9514,985.9184 960.8099,1062.0833 
						1017.6216,1046.8344 					"/>
					<polyline fill="#00FFFF" points="1017.4802,1122.9996 1017.6216,1046.8344 960.8099,1062.0833 960.6685,1138.2485 
						1017.4802,1122.9996 					"/>
					<polyline fill="#00A99D" points="1017.3387,1199.1646 1017.4802,1122.9996 960.6685,1138.2485 960.527,1214.4135 
						1017.3387,1199.1646 					"/>
					<polyline fill="#FF0000" points="1017.1973,1275.3228 1017.3387,1199.1646 960.527,1214.4135 960.3855,1290.5717 
						1017.1973,1275.3228 					"/>
					<polyline fill="#534741" points="1017.0558,1351.488 1017.1973,1275.3228 960.3855,1290.5717 960.244,1366.7369 
						1017.0558,1351.488 					"/>
					<polyline fill="#0071BC" points="1016.9143,1427.653 1017.0558,1351.488 960.244,1366.7369 960.1025,1442.9019 
						1016.9143,1427.653 					"/>
					<polyline fill="#FBB03B" points="1016.7728,1503.8182 1016.9143,1427.653 960.1025,1442.9019 959.9611,1519.0671 
						1016.7728,1503.8182 					"/>
					<polyline fill="#00A99D" points="1016.6314,1579.9764 1016.7728,1503.8182 959.9611,1519.0671 959.8196,1595.2253 
						1016.6314,1579.9764 					"/>
					<polyline fill="#754C24" points="961.8002,528.9416 961.9417,452.7763 905.1245,468.0266 904.983,544.1919 961.8002,528.9416 
											"/>
					<polyline fill="#FF7BAC" points="961.6587,605.0998 961.8002,528.9416 904.983,544.1919 904.8416,620.3502 961.6587,605.0998 
											"/>
					<polyline fill="#FF0000" points="961.5172,681.2647 961.6587,605.0998 904.8416,620.3502 904.7001,696.5151 961.5172,681.2647 
											"/>
					<polyline fill="#BDCCD4" points="961.3757,757.43 961.5172,681.2647 904.7001,696.5151 904.5587,772.6803 961.3757,757.43 
											"/>
					<polyline fill="#8CC63F" points="961.2343,833.5948 961.3757,757.43 904.5587,772.6803 904.4172,848.8452 961.2343,833.5948 
											"/>
					<polyline fill="#808080" points="961.0928,909.7531 961.2343,833.5948 904.4172,848.8452 904.2757,925.0035 961.0928,909.7531 
											"/>
					<polyline fill="#7AC943" points="960.9514,985.9184 961.0928,909.7531 904.2757,925.0035 904.1343,1001.1687 
						960.9514,985.9184 					"/>
					<polyline fill="#662D91" points="960.8099,1062.0833 960.9514,985.9184 904.1343,1001.1687 903.9928,1077.3336 
						960.8099,1062.0833 					"/>
					<polyline fill="#2E3192" points="960.6685,1138.2485 960.8099,1062.0833 903.9928,1077.3336 903.8513,1153.4989 
						960.6685,1138.2485 					"/>
					<polyline fill="#603813" points="960.527,1214.4135 960.6685,1138.2485 903.8513,1153.4989 903.7098,1229.6638 
						960.527,1214.4135 					"/>
					<polyline fill="#FF1D25" points="960.3855,1290.5717 960.527,1214.4135 903.7098,1229.6638 903.5684,1305.822 
						960.3855,1290.5717 					"/>
					<polyline fill="#FFFF00" points="960.244,1366.7369 960.3855,1290.5717 903.5684,1305.822 903.4269,1381.9873 
						960.244,1366.7369 					"/>
					<polyline fill="#A67C52" points="960.1025,1442.9019 960.244,1366.7369 903.4269,1381.9873 903.2855,1458.1522 
						960.1025,1442.9019 					"/>
					<polyline fill="#662D91" points="959.9611,1519.0671 960.1025,1442.9019 903.2855,1458.1522 903.144,1534.3175 
						959.9611,1519.0671 					"/>
					<polyline fill="#A67C52" points="959.8196,1595.2253 959.9611,1519.0671 903.144,1534.3175 903.0025,1610.4757 
						959.8196,1595.2253 					"/>
					<polyline fill="#FF00FF" points="904.983,544.1919 905.1245,468.0266 848.3127,483.2755 848.1713,559.4408 904.983,544.1919 
											"/>
					<polyline fill="#662D91" points="904.8416,620.3502 904.983,544.1919 848.1713,559.4408 848.0298,635.5991 904.8416,620.3502 
											"/>
					<polyline fill="#22B573" points="904.7001,696.5151 904.8416,620.3502 848.0298,635.5991 847.8884,711.764 904.7001,696.5151 
											"/>
					<polyline fill="#999999" points="904.5587,772.6803 904.7001,696.5151 847.8884,711.764 847.7469,787.9292 904.5587,772.6803 
											"/>
					<polyline fill="#ED1C24" points="904.4172,848.8452 904.5587,772.6803 847.7469,787.9292 847.6054,864.0941 904.4172,848.8452 
											"/>
					<polyline points="904.2757,925.0035 904.4172,848.8452 847.6054,864.0941 847.464,940.2524 904.2757,925.0035 					"/>
					<polyline fill="#333333" points="904.1343,1001.1687 904.2757,925.0035 847.464,940.2524 847.3225,1016.4177 
						904.1343,1001.1687 					"/>
					<polyline fill="#00FF00" points="903.9928,1077.3336 904.1343,1001.1687 847.3225,1016.4177 847.181,1092.5825 
						903.9928,1077.3336 					"/>
					<polyline fill="#29ABE2" points="903.8513,1153.4989 903.9928,1077.3336 847.181,1092.5825 847.0396,1168.7478 
						903.8513,1153.4989 					"/>
					<polyline fill="#333333" points="903.7098,1229.6638 903.8513,1153.4989 847.0396,1168.7478 846.8981,1244.9127 
						903.7098,1229.6638 					"/>
					<polyline fill="#2E3192" points="903.5684,1305.822 903.7098,1229.6638 846.8981,1244.9127 846.7567,1321.0709 
						903.5684,1305.822 					"/>
					<polyline fill="#3FA9F5" points="903.4269,1381.9873 903.5684,1305.822 846.7567,1321.0709 846.6152,1397.2362 
						903.4269,1381.9873 					"/>
					<polyline fill="#FF0000" points="903.2855,1458.1522 903.4269,1381.9873 846.6152,1397.2362 846.4737,1473.4011 
						903.2855,1458.1522 					"/>
					<polyline fill="#808080" points="903.144,1534.3175 903.2855,1458.1522 846.4737,1473.4011 846.3322,1549.5664 
						903.144,1534.3175 					"/>
					<polyline fill="#A67C52" points="903.0025,1610.4757 903.144,1534.3175 846.3322,1549.5664 846.1908,1625.7246 
						903.0025,1610.4757 					"/>
				</g>
			</g>
		</g>
		<g>
			<g enable-background="new    ">
				<defs>
					<polygon id="SVGID_3_" enable-background="new    " points="19.673,245.4839 871.7476,16.7775 1700.4519,254.8565 
						848.3772,483.5629 					"/>
				</defs>
				<clipPath id="SVGID_4_">
					<use xlink:href="#SVGID_3_"  overflow="visible"/>
				</clipPath>
				<g clip-path="url(#SVGID_4_)">
					<polyline fill="#C7B299" points="926.8668,32.578 871.5889,16.6971 814.7772,31.9461 870.055,47.8269 926.8668,32.578 					"/>
					<polyline fill="#009245" points="982.1395,48.4573 926.8668,32.578 870.055,47.8269 925.3278,63.7062 982.1395,48.4573 					
						"/>
					<polyline fill="#C1272D" points="1037.4171,64.338 982.1395,48.4573 925.3278,63.7062 980.6053,79.5869 1037.4171,64.338 					
						"/>
					<polyline fill="#F7931E" points="1092.6949,80.2188 1037.4171,64.338 980.6053,79.5869 1035.8832,95.4678 1092.6949,80.2188 
											"/>
					<polyline fill="#C69C6D" points="1147.9724,96.0996 1092.6949,80.2188 1035.8832,95.4678 1091.1608,111.3485 
						1147.9724,96.0996 					"/>
					<polyline fill="#2E3192" points="1203.2452,111.9789 1147.9724,96.0996 1091.1608,111.3485 1146.4335,127.2278 
						1203.2452,111.9789 					"/>
					<polyline fill="#754C24" points="1258.5231,127.8597 1203.2452,111.9789 1146.4335,127.2278 1201.7113,143.1086 
						1258.5231,127.8597 					"/>
					<polyline fill="#FCEE21" points="1313.8007,143.7405 1258.5231,127.8597 1201.7113,143.1086 1256.9889,158.9894 
						1313.8007,143.7405 					"/>
					<polyline fill="#00A99D" points="1369.0785,159.6213 1313.8007,143.7405 1256.9889,158.9894 1312.2667,174.8702 
						1369.0785,159.6213 					"/>
					<polyline fill="#534741" points="1424.3561,175.502 1369.0785,159.6213 1312.2667,174.8702 1367.5443,190.7509 
						1424.3561,175.502 					"/>
					<polyline fill="#93278F" points="1479.6288,191.3814 1424.3561,175.502 1367.5443,190.7509 1422.817,206.6303 
						1479.6288,191.3814 					"/>
					<polyline fill="#603813" points="1534.9066,207.2622 1479.6288,191.3814 1422.817,206.6303 1478.0948,222.5111 
						1534.9066,207.2622 					"/>
					<polyline fill="#FFFF00" points="1590.1842,223.1429 1534.9066,207.2622 1478.0948,222.5111 1533.3724,238.3918 
						1590.1842,223.1429 					"/>
					<polyline fill="#F15A24" points="1645.462,239.0237 1590.1842,223.1429 1533.3724,238.3918 1588.6503,254.2726 
						1645.462,239.0237 					"/>
					<polyline fill="#FFFF00" points="1700.7347,254.9031 1645.462,239.0237 1588.6503,254.2726 1643.9231,270.152 
						1700.7347,254.9031 					"/>
					<polyline fill="#00FFFF" points="870.055,47.8269 814.7772,31.9461 757.9654,47.195 813.2432,63.0758 870.055,47.8269 					"/>
					<polyline fill="#FF0000" points="925.3278,63.7062 870.055,47.8269 813.2432,63.0758 868.516,78.9551 925.3278,63.7062 					
						"/>
					<polyline fill="#C7B299" points="980.6053,79.5869 925.3278,63.7062 868.516,78.9551 923.7936,94.8359 980.6053,79.5869 					
						"/>
					<polyline points="1035.8832,95.4678 980.6053,79.5869 923.7936,94.8359 979.0714,110.7167 1035.8832,95.4678 					"/>
					<polyline fill="#00A99D" points="1091.1608,111.3485 1035.8832,95.4678 979.0714,110.7167 1034.349,126.5974 
						1091.1608,111.3485 					"/>
					<polyline fill="#C69C6D" points="1146.4335,127.2278 1091.1608,111.3485 1034.349,126.5974 1089.6217,142.4767 
						1146.4335,127.2278 					"/>
					<polyline fill="#FCEE21" points="1201.7113,143.1086 1146.4335,127.2278 1089.6217,142.4767 1144.8995,158.3576 
						1201.7113,143.1086 					"/>
					<polyline fill="#4D4D4D" points="1256.9889,158.9894 1201.7113,143.1086 1144.8995,158.3576 1200.1771,174.2383 
						1256.9889,158.9894 					"/>
					<polyline fill="#C69C6D" points="1312.2667,174.8702 1256.9889,158.9894 1200.1771,174.2383 1255.455,190.1191 
						1312.2667,174.8702 					"/>
					<polyline fill="#FF00FF" points="1367.5443,190.7509 1312.2667,174.8702 1255.455,190.1191 1310.7325,205.9998 
						1367.5443,190.7509 					"/>
					<polyline fill="#A67C52" points="1422.817,206.6303 1367.5443,190.7509 1310.7325,205.9998 1366.0052,221.8792 
						1422.817,206.6303 					"/>
					<polyline fill="#FF1D25" points="1478.0948,222.5111 1422.817,206.6303 1366.0052,221.8792 1421.2831,237.76 
						1478.0948,222.5111 					"/>
					<polyline fill="#FF1D25" points="1533.3724,238.3918 1478.0948,222.5111 1421.2831,237.76 1476.5607,253.6407 
						1533.3724,238.3918 					"/>
					<polyline fill="#1B1464" points="1588.6503,254.2726 1533.3724,238.3918 1476.5607,253.6407 1531.8385,269.5215 
						1588.6503,254.2726 					"/>
					<polyline fill="#C7B299" points="1643.9231,270.152 1588.6503,254.2726 1531.8385,269.5215 1587.1113,285.4009 
						1643.9231,270.152 					"/>
					<polyline fill="#D4145A" points="813.2432,63.0758 757.9654,47.195 701.1483,62.4453 756.4261,78.3261 813.2432,63.0758 					
						"/>
					<polyline fill="#FF1D25" points="868.516,78.9551 813.2432,63.0758 756.4261,78.3261 811.6989,94.2055 868.516,78.9551 					
						"/>
					<polyline fill="#8CC63F" points="923.7936,94.8359 868.516,78.9551 811.6989,94.2055 866.9764,110.0862 923.7936,94.8359 					
						"/>
					<polyline fill="#662D91" points="979.0714,110.7167 923.7936,94.8359 866.9764,110.0862 922.2543,125.967 979.0714,110.7167 
											"/>
					<polyline fill="#754C24" points="1034.349,126.5974 979.0714,110.7167 922.2543,125.967 977.5319,141.8477 1034.349,126.5974 
											"/>
					<polyline fill="#0071BC" points="1089.6217,142.4767 1034.349,126.5974 977.5319,141.8477 1032.8046,157.7271 
						1089.6217,142.4767 					"/>
					<polyline fill="#0071BC" points="1144.8995,158.3576 1089.6217,142.4767 1032.8046,157.7271 1088.0824,173.6079 
						1144.8995,158.3576 					"/>
					<polyline fill="#F15A24" points="1200.1771,174.2383 1144.8995,158.3576 1088.0824,173.6079 1143.36,189.4886 
						1200.1771,174.2383 					"/>
					<polyline fill="#93278F" points="1255.455,190.1191 1200.1771,174.2383 1143.36,189.4886 1198.6378,205.3694 
						1255.455,190.1191 					"/>
					<polyline fill="#808080" points="1310.7325,205.9998 1255.455,190.1191 1198.6378,205.3694 1253.9154,221.2502 
						1310.7325,205.9998 					"/>
					<polyline fill="#F15A24" points="1366.0052,221.8792 1310.7325,205.9998 1253.9154,221.2502 1309.1882,237.1295 
						1366.0052,221.8792 					"/>
					<polyline fill="#FCEE21" points="1421.2831,237.76 1366.0052,221.8792 1309.1882,237.1295 1364.4661,253.0103 
						1421.2831,237.76 					"/>
					<polyline fill="#C69C6D" points="1476.5607,253.6407 1421.2831,237.76 1364.4661,253.0103 1419.7437,268.8911 
						1476.5607,253.6407 					"/>
					<polyline fill="#93278F" points="1531.8385,269.5215 1476.5607,253.6407 1419.7437,268.8911 1475.0215,284.7719 
						1531.8385,269.5215 					"/>
					<polyline fill="#00FF00" points="1587.1113,285.4009 1531.8385,269.5215 1475.0215,284.7719 1530.2942,300.6512 
						1587.1113,285.4009 					"/>
					<polyline fill="#754C24" points="756.4261,78.3261 701.1483,62.4453 644.3365,77.6942 699.6144,93.575 756.4261,78.3261 					
						"/>
					<polyline fill="#C7B299" points="811.6989,94.2055 756.4261,78.3261 699.6144,93.575 754.8871,109.4544 811.6989,94.2055 					
						"/>
					<polyline fill="#00A99D" points="866.9764,110.0862 811.6989,94.2055 754.8871,109.4544 810.1647,125.3351 866.9764,110.0862 
											"/>
					<polyline fill="#00FFFF" points="922.2543,125.967 866.9764,110.0862 810.1647,125.3351 865.4426,141.2159 922.2543,125.967 
											"/>
					<polyline fill="#FCEE21" points="977.5319,141.8477 922.2543,125.967 865.4426,141.2159 920.7202,157.0967 977.5319,141.8477 
											"/>
					<polyline fill="#2E3192" points="1032.8046,157.7271 977.5319,141.8477 920.7202,157.0967 975.9929,172.976 
						1032.8046,157.7271 					"/>
					<polyline fill="#662D91" points="1088.0824,173.6079 1032.8046,157.7271 975.9929,172.976 1031.2708,188.8568 
						1088.0824,173.6079 					"/>
					<polyline fill="#808080" points="1143.36,189.4886 1088.0824,173.6079 1031.2708,188.8568 1086.5483,204.7375 
						1143.36,189.4886 					"/>
					<polyline fill="#F7931E" points="1198.6378,205.3694 1143.36,189.4886 1086.5483,204.7375 1141.8262,220.6184 
						1198.6378,205.3694 					"/>
					<polyline fill="#F7931E" points="1253.9154,221.2502 1198.6378,205.3694 1141.8262,220.6184 1197.1038,236.4991 
						1253.9154,221.2502 					"/>
					<polyline fill="#FFFF00" points="1309.1882,237.1295 1253.9154,221.2502 1197.1038,236.4991 1252.3765,252.3784 
						1309.1882,237.1295 					"/>
					<polyline fill="#ED1C24" points="1364.4661,253.0103 1309.1882,237.1295 1252.3765,252.3784 1307.6543,268.2592 
						1364.4661,253.0103 					"/>
					<polyline fill="#D9E021" points="1419.7437,268.8911 1364.4661,253.0103 1307.6543,268.2592 1362.9319,284.14 
						1419.7437,268.8911 					"/>
					<polyline fill="#39B54A" points="1475.0215,284.7719 1419.7437,268.8911 1362.9319,284.14 1418.2097,300.0208 
						1475.0215,284.7719 					"/>
					<polyline fill="#FF0000" points="1530.2942,300.6512 1475.0215,284.7719 1418.2097,300.0208 1473.4824,315.9001 
						1530.2942,300.6512 					"/>
					<polyline fill="#39B54A" points="699.6144,93.575 644.3365,77.6942 587.5248,92.9431 642.8027,108.8239 699.6144,93.575 					
						"/>
					<polyline fill="#22B573" points="754.8871,109.4544 699.6144,93.575 642.8027,108.8239 698.0754,124.7033 754.8871,109.4544 
											"/>
					<polyline fill="#22B573" points="810.1647,125.3351 754.8871,109.4544 698.0754,124.7033 753.353,140.584 810.1647,125.3351 
											"/>
					<polyline fill="#29ABE2" points="865.4426,141.2159 810.1647,125.3351 753.353,140.584 808.6308,156.4648 865.4426,141.2159 
											"/>
					<polyline fill="#7AC943" points="920.7202,157.0967 865.4426,141.2159 808.6308,156.4648 863.9084,172.3456 920.7202,157.0967 
											"/>
					<polyline fill="#736357" points="975.9929,172.976 920.7202,157.0967 863.9084,172.3456 919.1812,188.2249 975.9929,172.976 
											"/>
					<polyline fill="#C69C6D" points="1031.2708,188.8568 975.9929,172.976 919.1812,188.2249 974.459,204.1057 1031.2708,188.8568 
											"/>
					<polyline fill="#FF931E" points="1086.5483,204.7375 1031.2708,188.8568 974.459,204.1057 1029.7366,219.9865 
						1086.5483,204.7375 					"/>
					<polyline fill="#754C24" points="1141.8262,220.6184 1086.5483,204.7375 1029.7366,219.9865 1085.0144,235.8673 
						1141.8262,220.6184 					"/>
					<polyline fill="#603813" points="1197.1038,236.4991 1141.8262,220.6184 1085.0144,235.8673 1140.292,251.748 
						1197.1038,236.4991 					"/>
					<polyline fill="#F15A24" points="1252.3765,252.3784 1197.1038,236.4991 1140.292,251.748 1195.5647,267.6273 
						1252.3765,252.3784 					"/>
					<polyline fill="#00FF00" points="1307.6543,268.2592 1252.3765,252.3784 1195.5647,267.6273 1250.8425,283.5081 
						1307.6543,268.2592 					"/>
					<polyline fill="#009245" points="1362.9319,284.14 1307.6543,268.2592 1250.8425,283.5081 1306.1201,299.3889 
						1362.9319,284.14 					"/>
					<polyline fill="#93278F" points="1418.2097,300.0208 1362.9319,284.14 1306.1201,299.3889 1361.3979,315.2697 
						1418.2097,300.0208 					"/>
					<polyline points="1473.4824,315.9001 1418.2097,300.0208 1361.3979,315.2697 1416.6707,331.149 1473.4824,315.9001 					"/>
					<polyline fill="#ED1E79" points="642.8027,108.8239 587.5248,92.9431 530.708,108.1934 585.9858,124.0742 642.8027,108.8239 
											"/>
					<polyline fill="#999999" points="698.0754,124.7033 642.8027,108.8239 585.9858,124.0742 641.2585,139.9536 698.0754,124.7033 
											"/>
					<polyline fill="#FF7BAC" points="753.353,140.584 698.0754,124.7033 641.2585,139.9536 696.5361,155.8343 753.353,140.584 
											"/>
					<polyline fill="#662D91" points="808.6308,156.4648 753.353,140.584 696.5361,155.8343 751.814,171.7151 808.6308,156.4648 
											"/>
					<polyline fill="#9E005D" points="863.9084,172.3456 808.6308,156.4648 751.814,171.7151 807.0916,187.5958 863.9084,172.3456 
											"/>
					<polyline fill="#998675" points="919.1812,188.2249 863.9084,172.3456 807.0916,187.5958 862.3643,203.4752 919.1812,188.2249 
											"/>
					<polyline fill="#B3B3B3" points="974.459,204.1057 919.1812,188.2249 862.3643,203.4752 917.6422,219.356 974.459,204.1057 
											"/>
					<polyline fill="#22B573" points="1029.7366,219.9865 974.459,204.1057 917.6422,219.356 972.9197,235.2367 1029.7366,219.9865 
											"/>
					<polyline fill="#00FFFF" points="1085.0144,235.8673 1029.7366,219.9865 972.9197,235.2367 1028.1975,251.1175 
						1085.0144,235.8673 					"/>
					<polyline fill="#8CC63F" points="1140.292,251.748 1085.0144,235.8673 1028.1975,251.1175 1083.4751,266.9983 
						1140.292,251.748 					"/>
					<polyline fill="#009245" points="1195.5647,267.6273 1140.292,251.748 1083.4751,266.9983 1138.7479,282.8776 
						1195.5647,267.6273 					"/>
					<polyline fill="#FF7BAC" points="1250.8425,283.5081 1195.5647,267.6273 1138.7479,282.8776 1194.0258,298.7584 
						1250.8425,283.5081 					"/>
					<polyline fill="#3FA9F5" points="1306.1201,299.3889 1250.8425,283.5081 1194.0258,298.7584 1249.3033,314.6392 
						1306.1201,299.3889 					"/>
					<polyline fill="#7AC943" points="1361.3979,315.2697 1306.1201,299.3889 1249.3033,314.6392 1304.5812,330.52 
						1361.3979,315.2697 					"/>
					<polyline fill="#006837" points="1416.6707,331.149 1361.3979,315.2697 1304.5812,330.52 1359.8539,346.3993 
						1416.6707,331.149 					"/>
					<polyline fill="#D4145A" points="585.9858,124.0742 530.708,108.1934 473.8962,123.4423 529.1741,139.3231 585.9858,124.0742 
											"/>
					<polyline fill="#998675" points="641.2585,139.9536 585.9858,124.0742 529.1741,139.3231 584.4468,155.2025 641.2585,139.9536 
											"/>
					<polyline fill="#534741" points="696.5361,155.8343 641.2585,139.9536 584.4468,155.2025 639.7244,171.0832 696.5361,155.8343 
											"/>
					<polyline fill="#999999" points="751.814,171.7151 696.5361,155.8343 639.7244,171.0832 695.0023,186.964 751.814,171.7151 
											"/>
					<polyline fill="#009245" points="807.0916,187.5958 751.814,171.7151 695.0023,186.964 750.2798,202.8448 807.0916,187.5958 
											"/>
					<polyline fill="#39B54A" points="862.3643,203.4752 807.0916,187.5958 750.2798,202.8448 805.5526,218.7241 862.3643,203.4752 
											"/>
					<polyline fill="#FCEE21" points="917.6422,219.356 862.3643,203.4752 805.5526,218.7241 860.8304,234.6049 917.6422,219.356 
											"/>
					<polyline fill="#8CC63F" points="972.9197,235.2367 917.6422,219.356 860.8304,234.6049 916.108,250.4856 972.9197,235.2367 
											"/>
					<polyline fill="#FCEE21" points="1028.1975,251.1175 972.9197,235.2367 916.108,250.4856 971.3858,266.3665 
						1028.1975,251.1175 					"/>
					<polyline fill="#FF00FF" points="1083.4751,266.9983 1028.1975,251.1175 971.3858,266.3665 1026.6633,282.2472 
						1083.4751,266.9983 					"/>
					<polyline fill="#603813" points="1138.7479,282.8776 1083.4751,266.9983 1026.6633,282.2472 1081.9362,298.1265 
						1138.7479,282.8776 					"/>
					<polyline fill="#39B54A" points="1194.0258,298.7584 1138.7479,282.8776 1081.9362,298.1265 1137.214,314.0074 
						1194.0258,298.7584 					"/>
					<polyline fill="#666666" points="1249.3033,314.6392 1194.0258,298.7584 1137.214,314.0074 1192.4916,329.8881 
						1249.3033,314.6392 					"/>
					<polyline fill="#F15A24" points="1304.5812,330.52 1249.3033,314.6392 1192.4916,329.8881 1247.7694,345.7689 
						1304.5812,330.52 					"/>
					<polyline fill="#D4145A" points="1359.8539,346.3993 1304.5812,330.52 1247.7694,345.7689 1303.0421,361.6482 
						1359.8539,346.3993 					"/>
					<polyline fill="#00FFFF" points="529.1741,139.3231 473.8962,123.4423 417.0845,138.6912 472.3623,154.572 529.1741,139.3231 
											"/>
					<polyline fill="#FBB03B" points="584.4468,155.2025 529.1741,139.3231 472.3623,154.572 527.6351,170.4514 584.4468,155.2025 
											"/>
					<polyline fill="#7AC943" points="639.7244,171.0832 584.4468,155.2025 527.6351,170.4514 582.9127,186.3321 639.7244,171.0832 
											"/>
					<polyline fill="#333333" points="695.0023,186.964 639.7244,171.0832 582.9127,186.3321 638.1905,202.2129 695.0023,186.964 
											"/>
					<polyline points="750.2798,202.8448 695.0023,186.964 638.1905,202.2129 693.4681,218.0937 750.2798,202.8448 					"/>
					<polyline fill="#754C24" points="805.5526,218.7241 750.2798,202.8448 693.4681,218.0937 748.7408,233.973 805.5526,218.7241 
											"/>
					<polyline fill="#998675" points="860.8304,234.6049 805.5526,218.7241 748.7408,233.973 804.0187,249.8538 860.8304,234.6049 
											"/>
					<polyline fill="#00FF00" points="916.108,250.4856 860.8304,234.6049 804.0187,249.8538 859.2962,265.7346 916.108,250.4856 
											"/>
					<polyline fill="#FF7BAC" points="971.3858,266.3665 916.108,250.4856 859.2962,265.7346 914.5741,281.6154 971.3858,266.3665 
											"/>
					<polyline fill="#666666" points="1026.6633,282.2472 971.3858,266.3665 914.5741,281.6154 969.8516,297.4961 
						1026.6633,282.2472 					"/>
					<polyline fill="#D9E021" points="1081.9362,298.1265 1026.6633,282.2472 969.8516,297.4961 1025.1244,313.3755 
						1081.9362,298.1265 					"/>
					<polyline fill="#C69C6D" points="1137.214,314.0074 1081.9362,298.1265 1025.1244,313.3755 1080.4022,329.2563 
						1137.214,314.0074 					"/>
					<polyline fill="#F15A24" points="1192.4916,329.8881 1137.214,314.0074 1080.4022,329.2563 1135.6798,345.137 
						1192.4916,329.8881 					"/>
					<polyline fill="#D9E021" points="1247.7694,345.7689 1192.4916,329.8881 1135.6798,345.137 1190.9576,361.0178 
						1247.7694,345.7689 					"/>
					<polyline fill="#0071BC" points="1303.0421,361.6482 1247.7694,345.7689 1190.9576,361.0178 1246.2303,376.8972 
						1303.0421,361.6482 					"/>
					<polyline fill="#D9E021" points="472.3623,154.572 417.0845,138.6912 360.2677,153.9415 415.5455,169.8223 472.3623,154.572 
											"/>
					<polyline fill="#736357" points="527.6351,170.4514 472.3623,154.572 415.5455,169.8223 470.8183,185.7017 527.6351,170.4514 
											"/>
					<polyline fill="#C1272D" points="582.9127,186.3321 527.6351,170.4514 470.8183,185.7017 526.0958,201.5824 582.9127,186.3321 
											"/>
					<polyline fill="#8CC63F" points="638.1905,202.2129 582.9127,186.3321 526.0958,201.5824 581.3737,217.4632 638.1905,202.2129 
											"/>
					<polyline fill="#736357" points="693.4681,218.0937 638.1905,202.2129 581.3737,217.4632 636.6512,233.3439 693.4681,218.0937 
											"/>
					<polyline fill="#ED1C24" points="748.7408,233.973 693.4681,218.0937 636.6512,233.3439 691.924,249.2233 748.7408,233.973 
											"/>
					<polyline fill="#29ABE2" points="804.0187,249.8538 748.7408,233.973 691.924,249.2233 747.2018,265.1041 804.0187,249.8538 
											"/>
					<polyline fill="#8C6239" points="859.2962,265.7346 804.0187,249.8538 747.2018,265.1041 802.4794,280.9848 859.2962,265.7346 
											"/>
					<polyline fill="#9E005D" points="914.5741,281.6154 859.2962,265.7346 802.4794,280.9848 857.7573,296.8656 914.5741,281.6154 
											"/>
					<polyline fill="#808080" points="969.8516,297.4961 914.5741,281.6154 857.7573,296.8656 913.0348,312.7464 969.8516,297.4961 
											"/>
					<polyline fill="#FCEE21" points="1025.1244,313.3755 969.8516,297.4961 913.0348,312.7464 968.3076,328.6257 
						1025.1244,313.3755 					"/>
					<polyline fill="#9E005D" points="1080.4022,329.2563 1025.1244,313.3755 968.3076,328.6257 1023.5854,344.5065 
						1080.4022,329.2563 					"/>
					<polyline fill="#999999" points="1135.6798,345.137 1080.4022,329.2563 1023.5854,344.5065 1078.8629,360.3873 
						1135.6798,345.137 					"/>
					<polyline fill="#29ABE2" points="1190.9576,361.0178 1135.6798,345.137 1078.8629,360.3873 1134.1409,376.2681 
						1190.9576,361.0178 					"/>
					<polyline fill="#999999" points="1246.2303,376.8972 1190.9576,361.0178 1134.1409,376.2681 1189.4136,392.1474 
						1246.2303,376.8972 					"/>
					<polyline points="415.5455,169.8223 360.2677,153.9415 303.4559,169.1904 358.7338,185.0712 415.5455,169.8223 					"/>
					<polyline fill="#666666" points="470.8183,185.7017 415.5455,169.8223 358.7338,185.0712 414.0065,200.9506 470.8183,185.7017 
											"/>
					<polyline fill="#998675" points="526.0958,201.5824 470.8183,185.7017 414.0065,200.9506 469.2841,216.8313 526.0958,201.5824 
											"/>
					<polyline fill="#754C24" points="581.3737,217.4632 526.0958,201.5824 469.2841,216.8313 524.562,232.7121 581.3737,217.4632 
											"/>
					<polyline fill="#006837" points="636.6512,233.3439 581.3737,217.4632 524.562,232.7121 579.8395,248.5928 636.6512,233.3439 
											"/>
					<polyline fill="#9E005D" points="691.924,249.2233 636.6512,233.3439 579.8395,248.5928 635.1122,264.4722 691.924,249.2233 
											"/>
					<polyline fill="#39B54A" points="747.2018,265.1041 691.924,249.2233 635.1122,264.4722 690.3901,280.353 747.2018,265.1041 
											"/>
					<polyline fill="#006837" points="802.4794,280.9848 747.2018,265.1041 690.3901,280.353 745.6677,296.2337 802.4794,280.9848 
											"/>
					<polyline fill="#7AC943" points="857.7573,296.8656 802.4794,280.9848 745.6677,296.2337 800.9455,312.1145 857.7573,296.8656 
											"/>
					<polyline fill="#00FFFF" points="913.0348,312.7464 857.7573,296.8656 800.9455,312.1145 856.2231,327.9953 913.0348,312.7464 
											"/>
					<polyline fill="#736357" points="968.3076,328.6257 913.0348,312.7464 856.2231,327.9953 911.4958,343.8746 968.3076,328.6257 
											"/>
					<polyline fill="#29ABE2" points="1023.5854,344.5065 968.3076,328.6257 911.4958,343.8746 966.7737,359.7554 
						1023.5854,344.5065 					"/>
					<polyline fill="#2E3192" points="1078.8629,360.3873 1023.5854,344.5065 966.7737,359.7554 1022.0512,375.6362 
						1078.8629,360.3873 					"/>
					<polyline fill="#FF00FF" points="1134.1409,376.2681 1078.8629,360.3873 1022.0512,375.6362 1077.3291,391.517 
						1134.1409,376.2681 					"/>
					<polyline fill="#B3B3B3" points="1189.4136,392.1474 1134.1409,376.2681 1077.3291,391.517 1132.6018,407.3963 
						1189.4136,392.1474 					"/>
					<polyline fill="#ED1E79" points="358.7338,185.0712 303.4559,169.1904 246.6442,184.4393 301.922,200.3201 358.7338,185.0712 
											"/>
					<polyline fill="#8C6239" points="414.0065,200.9506 358.7338,185.0712 301.922,200.3201 357.1948,216.1995 414.0065,200.9506 
											"/>
					<polyline fill="#0071BC" points="469.2841,216.8313 414.0065,200.9506 357.1948,216.1995 412.4724,232.0802 469.2841,216.8313 
											"/>
					<polyline fill="#F15A24" points="524.562,232.7121 469.2841,216.8313 412.4724,232.0802 467.7502,247.961 524.562,232.7121 
											"/>
					<polyline fill="#CCCCCC" points="579.8395,248.5928 524.562,232.7121 467.7502,247.961 523.0278,263.8418 579.8395,248.5928 
											"/>
					<polyline fill="#39B54A" points="635.1122,264.4722 579.8395,248.5928 523.0278,263.8418 578.3005,279.7211 635.1122,264.4722 
											"/>
					<polyline fill="#3FA9F5" points="690.3901,280.353 635.1122,264.4722 578.3005,279.7211 633.5784,295.6019 690.3901,280.353 
											"/>
					<polyline fill="#736357" points="745.6677,296.2337 690.3901,280.353 633.5784,295.6019 688.8559,311.4826 745.6677,296.2337 
											"/>
					<polyline fill="#7AC943" points="800.9455,312.1145 745.6677,296.2337 688.8559,311.4826 744.1337,327.3635 800.9455,312.1145 
											"/>
					<polyline fill="#ED1E79" points="856.2231,327.9953 800.9455,312.1145 744.1337,327.3635 799.4113,343.2442 856.2231,327.9953 
											"/>
					<polyline fill="#00FF00" points="911.4958,343.8746 856.2231,327.9953 799.4113,343.2442 854.6841,359.1235 911.4958,343.8746 
											"/>
					<polyline fill="#22B573" points="966.7737,359.7554 911.4958,343.8746 854.6841,359.1235 909.9619,375.0043 966.7737,359.7554 
											"/>
					<polyline fill="#00A99D" points="1022.0512,375.6362 966.7737,359.7554 909.9619,375.0043 965.2395,390.8851 
						1022.0512,375.6362 					"/>
					<polyline fill="#CCCCCC" points="1077.3291,391.517 1022.0512,375.6362 965.2395,390.8851 1020.5173,406.7659 
						1077.3291,391.517 					"/>
					<polyline fill="#00A99D" points="1132.6018,407.3963 1077.3291,391.517 1020.5173,406.7659 1075.79,422.6452 
						1132.6018,407.3963 					"/>
					<polyline fill="#998675" points="301.922,200.3201 246.6442,184.4393 189.8274,199.6896 245.1052,215.5704 301.922,200.3201 
											"/>
					<polyline fill="#7AC943" points="357.1948,216.1995 301.922,200.3201 245.1052,215.5704 300.3779,231.4498 357.1948,216.1995 
											"/>
					<polyline fill="#2E3192" points="412.4724,232.0802 357.1948,216.1995 300.3779,231.4498 355.6555,247.3305 412.4724,232.0802 
											"/>
					<polyline fill="#FF0000" points="467.7502,247.961 412.4724,232.0802 355.6555,247.3305 410.9333,263.2113 467.7502,247.961 
											"/>
					<polyline fill="#B3B3B3" points="523.0278,263.8418 467.7502,247.961 410.9333,263.2113 466.2109,279.092 523.0278,263.8418 
											"/>
					<polyline fill="#009245" points="578.3005,279.7211 523.0278,263.8418 466.2109,279.092 521.4836,294.9714 578.3005,279.7211 
											"/>
					<polyline fill="#662D91" points="633.5784,295.6019 578.3005,279.7211 521.4836,294.9714 576.7615,310.8522 633.5784,295.6019 
											"/>
					<polyline fill="#B3B3B3" points="688.8559,311.4826 633.5784,295.6019 576.7615,310.8522 632.0391,326.7329 688.8559,311.4826 
											"/>
					<polyline fill="#8C6239" points="744.1337,327.3635 688.8559,311.4826 632.0391,326.7329 687.3169,342.6137 744.1337,327.3635 
											"/>
					<polyline fill="#CCCCCC" points="799.4113,343.2442 744.1337,327.3635 687.3169,342.6137 742.5945,358.4945 799.4113,343.2442 
											"/>
					<polyline fill="#39B54A" points="854.6841,359.1235 799.4113,343.2442 742.5945,358.4945 797.8672,374.3738 854.6841,359.1235 
											"/>
					<polyline fill="#C7B299" points="909.9619,375.0043 854.6841,359.1235 797.8672,374.3738 853.1451,390.2546 909.9619,375.0043 
											"/>
					<polyline points="965.2395,390.8851 909.9619,375.0043 853.1451,390.2546 908.4227,406.1353 965.2395,390.8851 					"/>
					<polyline fill="#D4145A" points="1020.5173,406.7659 965.2395,390.8851 908.4227,406.1353 963.7005,422.0162 
						1020.5173,406.7659 					"/>
					<polyline fill="#9E005D" points="1075.79,422.6452 1020.5173,406.7659 963.7005,422.0162 1018.9733,437.8955 1075.79,422.6452 
											"/>
					<polyline fill="#B3B3B3" points="245.1052,215.5704 189.8274,199.6896 133.0156,214.9385 188.2935,230.8193 245.1052,215.5704 
											"/>
					<polyline fill="#1A1A1A" points="300.3779,231.4498 245.1052,215.5704 188.2935,230.8193 243.5662,246.6987 300.3779,231.4498 
											"/>
					<polyline fill="#00FFFF" points="355.6555,247.3305 300.3779,231.4498 243.5662,246.6987 298.8438,262.5794 355.6555,247.3305 
											"/>
					<polyline fill="#736357" points="410.9333,263.2113 355.6555,247.3305 298.8438,262.5794 354.1216,278.4602 410.9333,263.2113 
											"/>
					<polyline fill="#1A1A1A" points="466.2109,279.092 410.9333,263.2113 354.1216,278.4602 409.3992,294.3409 466.2109,279.092 
											"/>
					<polyline points="521.4836,294.9714 466.2109,279.092 409.3992,294.3409 464.6719,310.2203 521.4836,294.9714 					"/>
					<polyline fill="#CCCCCC" points="576.7615,310.8522 521.4836,294.9714 464.6719,310.2203 519.9498,326.1011 576.7615,310.8522 
											"/>
					<polyline fill="#C69C6D" points="632.0391,326.7329 576.7615,310.8522 519.9498,326.1011 575.2274,341.9818 632.0391,326.7329 
											"/>
					<polyline fill="#00FFFF" points="687.3169,342.6137 632.0391,326.7329 575.2274,341.9818 630.5052,357.8626 687.3169,342.6137 
											"/>
					<polyline fill="#00A99D" points="742.5945,358.4945 687.3169,342.6137 630.5052,357.8626 685.7828,373.7434 742.5945,358.4945 
											"/>
					<polyline fill="#FF0000" points="797.8672,374.3738 742.5945,358.4945 685.7828,373.7434 741.0555,389.6227 797.8672,374.3738 
											"/>
					<polyline fill="#534741" points="853.1451,390.2546 797.8672,374.3738 741.0555,389.6227 796.3333,405.5035 853.1451,390.2546 
											"/>
					<polyline fill="#0071BC" points="908.4227,406.1353 853.1451,390.2546 796.3333,405.5035 851.6109,421.3843 908.4227,406.1353 
											"/>
					<polyline fill="#FBB03B" points="963.7005,422.0162 908.4227,406.1353 851.6109,421.3843 906.8887,437.2651 963.7005,422.0162 
											"/>
					<polyline fill="#00A99D" points="1018.9733,437.8955 963.7005,422.0162 906.8887,437.2651 962.1615,453.1444 
						1018.9733,437.8955 					"/>
					<polyline fill="#754C24" points="188.2935,230.8193 133.0156,214.9385 76.1985,230.1889 131.4763,246.0697 188.2935,230.8193 
											"/>
					<polyline fill="#FF7BAC" points="243.5662,246.6987 188.2935,230.8193 131.4763,246.0697 186.7491,261.949 243.5662,246.6987 
											"/>
					<polyline fill="#FF0000" points="298.8438,262.5794 243.5662,246.6987 186.7491,261.949 242.0267,277.8297 298.8438,262.5794 
											"/>
					<polyline fill="#BDCCD4" points="354.1216,278.4602 298.8438,262.5794 242.0267,277.8297 297.3045,293.7105 354.1216,278.4602 
											"/>
					<polyline fill="#8CC63F" points="409.3992,294.3409 354.1216,278.4602 297.3045,293.7105 352.5821,309.5913 409.3992,294.3409 
											"/>
					<polyline fill="#808080" points="464.6719,310.2203 409.3992,294.3409 352.5821,309.5913 407.8548,325.4706 464.6719,310.2203 
											"/>
					<polyline fill="#7AC943" points="519.9498,326.1011 464.6719,310.2203 407.8548,325.4706 463.1327,341.3514 519.9498,326.1011 
											"/>
					<polyline fill="#662D91" points="575.2274,341.9818 519.9498,326.1011 463.1327,341.3514 518.4102,357.2322 575.2274,341.9818 
											"/>
					<polyline fill="#2E3192" points="630.5052,357.8626 575.2274,341.9818 518.4102,357.2322 573.688,373.113 630.5052,357.8626 
											"/>
					<polyline fill="#603813" points="685.7828,373.7434 630.5052,357.8626 573.688,373.113 628.9656,388.9937 685.7828,373.7434 
											"/>
					<polyline fill="#FF1D25" points="741.0555,389.6227 685.7828,373.7434 628.9656,388.9937 684.2384,404.8731 741.0555,389.6227 
											"/>
					<polyline fill="#FFFF00" points="796.3333,405.5035 741.0555,389.6227 684.2384,404.8731 739.5162,420.7539 796.3333,405.5035 
											"/>
					<polyline fill="#A67C52" points="851.6109,421.3843 796.3333,405.5035 739.5162,420.7539 794.7938,436.6346 851.6109,421.3843 
											"/>
					<polyline fill="#662D91" points="906.8887,437.2651 851.6109,421.3843 794.7938,436.6346 850.0717,452.5154 906.8887,437.2651 
											"/>
					<polyline fill="#A67C52" points="962.1615,453.1444 906.8887,437.2651 850.0717,452.5154 905.3444,468.3948 962.1615,453.1444 
											"/>
					<polyline fill="#FF00FF" points="131.4763,246.0697 76.1985,230.1889 19.3868,245.4378 74.6646,261.3186 131.4763,246.0697 
											"/>
					<polyline fill="#662D91" points="186.7491,261.949 131.4763,246.0697 74.6646,261.3186 129.9373,277.1979 186.7491,261.949 
											"/>
					<polyline fill="#22B573" points="242.0267,277.8297 186.7491,261.949 129.9373,277.1979 185.2149,293.0786 242.0267,277.8297 
											"/>
					<polyline fill="#999999" points="297.3045,293.7105 242.0267,277.8297 185.2149,293.0786 240.4928,308.9595 297.3045,293.7105 
											"/>
					<polyline fill="#ED1C24" points="352.5821,309.5913 297.3045,293.7105 240.4928,308.9595 295.7703,324.8402 352.5821,309.5913 
											"/>
					<polyline points="407.8548,325.4706 352.5821,309.5913 295.7703,324.8402 351.0431,340.7195 407.8548,325.4706 					"/>
					<polyline fill="#333333" points="463.1327,341.3514 407.8548,325.4706 351.0431,340.7195 406.3209,356.6003 463.1327,341.3514 
											"/>
					<polyline fill="#00FF00" points="518.4102,357.2322 463.1327,341.3514 406.3209,356.6003 461.5985,372.4811 518.4102,357.2322 
											"/>
					<polyline fill="#29ABE2" points="573.688,373.113 518.4102,357.2322 461.5985,372.4811 516.8763,388.3619 573.688,373.113 
											"/>
					<polyline fill="#333333" points="628.9656,388.9937 573.688,373.113 516.8763,388.3619 572.1539,404.2426 628.9656,388.9937 
											"/>
					<polyline fill="#2E3192" points="684.2384,404.8731 628.9656,388.9937 572.1539,404.2426 627.4266,420.122 684.2384,404.8731 
											"/>
					<polyline fill="#3FA9F5" points="739.5162,420.7539 684.2384,404.8731 627.4266,420.122 682.7045,436.0028 739.5162,420.7539 
											"/>
					<polyline fill="#FF0000" points="794.7938,436.6346 739.5162,420.7539 682.7045,436.0028 737.9821,451.8835 794.7938,436.6346 
											"/>
					<polyline fill="#808080" points="850.0717,452.5154 794.7938,436.6346 737.9821,451.8835 793.2599,467.7643 850.0717,452.5154 
											"/>
					<polyline fill="#A67C52" points="905.3444,468.3948 850.0717,452.5154 793.2599,467.7643 848.5327,483.6437 905.3444,468.3948 
											"/>
				</g>
			</g>
		</g>
		<g>
			<g enable-background="new    ">
				<defs>
					<polygon id="SVGID_5_" enable-background="new    " points="848.3772,483.5629 846.2563,1625.4034 17.5521,1387.3243 
						19.673,245.4839 					"/>
				</defs>
				<clipPath id="SVGID_6_">
					<use xlink:href="#SVGID_5_"  overflow="visible"/>
				</clipPath>
				<g clip-path="url(#SVGID_6_)">
					<polyline fill="#C7B299" points="74.7298,261.2174 19.4519,245.3366 19.3105,321.4684 74.5884,337.3492 74.7298,261.2174 					
						"/>
					<polyline fill="#009245" points="130.0025,277.0968 74.7298,261.2174 74.5884,337.3492 129.8611,353.2285 130.0025,277.0968 
											"/>
					<polyline fill="#C1272D" points="185.2801,292.9775 130.0025,277.0968 129.8611,353.2285 185.1387,369.1093 185.2801,292.9775 
											"/>
					<polyline fill="#F7931E" points="240.5579,308.8583 185.2801,292.9775 185.1387,369.1093 240.4165,384.9901 240.5579,308.8583 
											"/>
					<polyline fill="#C69C6D" points="295.8355,324.739 240.5579,308.8583 240.4165,384.9901 295.6941,400.8708 295.8355,324.739 
											"/>
					<polyline fill="#2E3192" points="351.1082,340.6184 295.8355,324.739 295.6941,400.8708 350.9668,416.7502 351.1082,340.6184 
											"/>
					<polyline fill="#754C24" points="406.3861,356.4992 351.1082,340.6184 350.9668,416.7502 406.2447,432.631 406.3861,356.4992 
											"/>
					<polyline fill="#FCEE21" points="461.6636,372.3799 406.3861,356.4992 406.2447,432.631 461.5222,448.5117 461.6636,372.3799 
											"/>
					<polyline fill="#00A99D" points="516.9415,388.2607 461.6636,372.3799 461.5222,448.5117 516.8001,464.3925 516.9415,388.2607 
											"/>
					<polyline fill="#534741" points="572.2191,404.1415 516.9415,388.2607 516.8001,464.3925 572.0776,480.2733 572.2191,404.1415 
											"/>
					<polyline fill="#93278F" points="627.4918,420.0208 572.2191,404.1415 572.0776,480.2733 627.3504,496.1526 627.4918,420.0208 
											"/>
					<polyline fill="#603813" points="682.7697,435.9016 627.4918,420.0208 627.3504,496.1526 682.6282,512.0334 682.7697,435.9016 
											"/>
					<polyline fill="#FFFF00" points="738.0472,451.7824 682.7697,435.9016 682.6282,512.0334 737.9058,527.9141 738.0472,451.7824 
											"/>
					<polyline fill="#F15A24" points="793.3251,467.6632 738.0472,451.7824 737.9058,527.9141 793.1837,543.7949 793.3251,467.6632 
											"/>
					<polyline fill="#FFFF00" points="848.5978,483.5425 793.3251,467.6632 793.1837,543.7949 848.4564,559.6743 848.5978,483.5425 
											"/>
					<polyline fill="#00FFFF" points="74.5884,337.3492 19.3105,321.4684 19.1691,397.6001 74.4469,413.481 74.5884,337.3492 					
						"/>
					<polyline fill="#FF0000" points="129.8611,353.2285 74.5884,337.3492 74.4469,413.481 129.7197,429.3603 129.8611,353.2285 
											"/>
					<polyline fill="#C7B299" points="185.1387,369.1093 129.8611,353.2285 129.7197,429.3603 184.9973,445.241 185.1387,369.1093 
											"/>
					<polyline points="240.4165,384.9901 185.1387,369.1093 184.9973,445.241 240.2751,461.1218 240.4165,384.9901 					"/>
					<polyline fill="#00A99D" points="295.6941,400.8708 240.4165,384.9901 240.2751,461.1218 295.5527,477.0026 295.6941,400.8708 
											"/>
					<polyline fill="#C69C6D" points="350.9668,416.7502 295.6941,400.8708 295.5527,477.0026 350.8254,492.8819 350.9668,416.7502 
											"/>
					<polyline fill="#FCEE21" points="406.2447,432.631 350.9668,416.7502 350.8254,492.8819 406.1033,508.7627 406.2447,432.631 
											"/>
					<polyline fill="#4D4D4D" points="461.5222,448.5117 406.2447,432.631 406.1033,508.7627 461.3808,524.6435 461.5222,448.5117 
											"/>
					<polyline fill="#C69C6D" points="516.8001,464.3925 461.5222,448.5117 461.3808,524.6435 516.6587,540.5243 516.8001,464.3925 
											"/>
					<polyline fill="#FF00FF" points="572.0776,480.2733 516.8001,464.3925 516.6587,540.5243 571.9362,556.405 572.0776,480.2733 
											"/>
					<polyline fill="#A67C52" points="627.3504,496.1526 572.0776,480.2733 571.9362,556.405 627.209,572.2844 627.3504,496.1526 
											"/>
					<polyline fill="#FF1D25" points="682.6282,512.0334 627.3504,496.1526 627.209,572.2844 682.4868,588.1652 682.6282,512.0334 
											"/>
					<polyline fill="#FF1D25" points="737.9058,527.9141 682.6282,512.0334 682.4868,588.1652 737.7644,604.0459 737.9058,527.9141 
											"/>
					<polyline fill="#1B1464" points="793.1837,543.7949 737.9058,527.9141 737.7644,604.0459 793.0422,619.9267 793.1837,543.7949 
											"/>
					<polyline fill="#C7B299" points="848.4564,559.6743 793.1837,543.7949 793.0422,619.9267 848.315,635.806 848.4564,559.6743 
											"/>
					<polyline fill="#D4145A" points="74.4469,413.481 19.1691,397.6001 19.0277,473.7391 74.3055,489.6199 74.4469,413.481 					
						"/>
					<polyline fill="#FF1D25" points="129.7197,429.3603 74.4469,413.481 74.3055,489.6199 129.5783,505.4993 129.7197,429.3603 
											"/>
					<polyline fill="#8CC63F" points="184.9973,445.241 129.7197,429.3603 129.5783,505.4993 184.8559,521.38 184.9973,445.241 
											"/>
					<polyline fill="#662D91" points="240.2751,461.1218 184.9973,445.241 184.8559,521.38 240.1337,537.2608 240.2751,461.1218 
											"/>
					<polyline fill="#754C24" points="295.5527,477.0026 240.2751,461.1218 240.1337,537.2608 295.4113,553.1415 295.5527,477.0026 
											"/>
					<polyline fill="#0071BC" points="350.8254,492.8819 295.5527,477.0026 295.4113,553.1415 350.684,569.0209 350.8254,492.8819 
											"/>
					<polyline fill="#0071BC" points="406.1033,508.7627 350.8254,492.8819 350.684,569.0209 405.9619,584.9017 406.1033,508.7627 
											"/>
					<polyline fill="#F15A24" points="461.3808,524.6435 406.1033,508.7627 405.9619,584.9017 461.2394,600.7824 461.3808,524.6435 
											"/>
					<polyline fill="#93278F" points="516.6587,540.5243 461.3808,524.6435 461.2394,600.7824 516.5173,616.6633 516.6587,540.5243 
											"/>
					<polyline fill="#808080" points="571.9362,556.405 516.6587,540.5243 516.5173,616.6633 571.7948,632.5439 571.9362,556.405 
											"/>
					<polyline fill="#F15A24" points="627.209,572.2844 571.9362,556.405 571.7948,632.5439 627.0676,648.4233 627.209,572.2844 
											"/>
					<polyline fill="#FCEE21" points="682.4868,588.1652 627.209,572.2844 627.0676,648.4233 682.3454,664.3041 682.4868,588.1652 
											"/>
					<polyline fill="#C69C6D" points="737.7644,604.0459 682.4868,588.1652 682.3454,664.3041 737.623,680.1849 737.7644,604.0459 
											"/>
					<polyline fill="#93278F" points="793.0422,619.9267 737.7644,604.0459 737.623,680.1849 792.9008,696.0657 793.0422,619.9267 
											"/>
					<polyline fill="#00FF00" points="848.315,635.806 793.0422,619.9267 792.9008,696.0657 848.1736,711.945 848.315,635.806 					
						"/>
					<polyline fill="#754C24" points="74.3055,489.6199 19.0277,473.7391 18.8863,549.8708 74.1641,565.7517 74.3055,489.6199 					
						"/>
					<polyline fill="#C7B299" points="129.5783,505.4993 74.3055,489.6199 74.1641,565.7517 129.4369,581.631 129.5783,505.4993 
											"/>
					<polyline fill="#00A99D" points="184.8559,521.38 129.5783,505.4993 129.4369,581.631 184.7144,597.5118 184.8559,521.38 					
						"/>
					<polyline fill="#00FFFF" points="240.1337,537.2608 184.8559,521.38 184.7144,597.5118 239.9923,613.3926 240.1337,537.2608 
											"/>
					<polyline fill="#FCEE21" points="295.4113,553.1415 240.1337,537.2608 239.9923,613.3926 295.2698,629.2733 295.4113,553.1415 
											"/>
					<polyline fill="#2E3192" points="350.684,569.0209 295.4113,553.1415 295.2698,629.2733 350.5426,645.1526 350.684,569.0209 
											"/>
					<polyline fill="#662D91" points="405.9619,584.9017 350.684,569.0209 350.5426,645.1526 405.8204,661.0334 405.9619,584.9017 
											"/>
					<polyline fill="#808080" points="461.2394,600.7824 405.9619,584.9017 405.8204,661.0334 461.098,676.9142 461.2394,600.7824 
											"/>
					<polyline fill="#F7931E" points="516.5173,616.6633 461.2394,600.7824 461.098,676.9142 516.3759,692.795 516.5173,616.6633 
											"/>
					<polyline fill="#F7931E" points="571.7948,632.5439 516.5173,616.6633 516.3759,692.795 571.6534,708.6757 571.7948,632.5439 
											"/>
					<polyline fill="#FFFF00" points="627.0676,648.4233 571.7948,632.5439 571.6534,708.6757 626.9261,724.5551 627.0676,648.4233 
											"/>
					<polyline fill="#ED1C24" points="682.3454,664.3041 627.0676,648.4233 626.9261,724.5551 682.204,740.4359 682.3454,664.3041 
											"/>
					<polyline fill="#D9E021" points="737.623,680.1849 682.3454,664.3041 682.204,740.4359 737.4816,756.3167 737.623,680.1849 
											"/>
					<polyline fill="#39B54A" points="792.9008,696.0657 737.623,680.1849 737.4816,756.3167 792.7594,772.1974 792.9008,696.0657 
											"/>
					<polyline fill="#FF0000" points="848.1736,711.945 792.9008,696.0657 792.7594,772.1974 848.0322,788.0768 848.1736,711.945 
											"/>
					<polyline fill="#39B54A" points="74.1641,565.7517 18.8863,549.8708 18.7449,626.0026 74.0227,641.8834 74.1641,565.7517 					
						"/>
					<polyline fill="#22B573" points="129.4369,581.631 74.1641,565.7517 74.0227,641.8834 129.2955,657.7628 129.4369,581.631 
											"/>
					<polyline fill="#22B573" points="184.7144,597.5118 129.4369,581.631 129.2955,657.7628 184.573,673.6436 184.7144,597.5118 
											"/>
					<polyline fill="#29ABE2" points="239.9923,613.3926 184.7144,597.5118 184.573,673.6436 239.8509,689.5244 239.9923,613.3926 
											"/>
					<polyline fill="#7AC943" points="295.2698,629.2733 239.9923,613.3926 239.8509,689.5244 295.1284,705.4051 295.2698,629.2733 
											"/>
					<polyline fill="#736357" points="350.5426,645.1526 295.2698,629.2733 295.1284,705.4051 350.4012,721.2844 350.5426,645.1526 
											"/>
					<polyline fill="#C69C6D" points="405.8204,661.0334 350.5426,645.1526 350.4012,721.2844 405.679,737.1652 405.8204,661.0334 
											"/>
					<polyline fill="#FF931E" points="461.098,676.9142 405.8204,661.0334 405.679,737.1652 460.9566,753.046 461.098,676.9142 
											"/>
					<polyline fill="#754C24" points="516.3759,692.795 461.098,676.9142 460.9566,753.046 516.2344,768.9268 516.3759,692.795 
											"/>
					<polyline fill="#603813" points="571.6534,708.6757 516.3759,692.795 516.2344,768.9268 571.512,784.8075 571.6534,708.6757 
											"/>
					<polyline fill="#F15A24" points="626.9261,724.5551 571.6534,708.6757 571.512,784.8075 626.7847,800.6868 626.9261,724.5551 
											"/>
					<polyline fill="#00FF00" points="682.204,740.4359 626.9261,724.5551 626.7847,800.6868 682.0626,816.5677 682.204,740.4359 
											"/>
					<polyline fill="#009245" points="737.4816,756.3167 682.204,740.4359 682.0626,816.5677 737.3401,832.4484 737.4816,756.3167 
											"/>
					<polyline fill="#93278F" points="792.7594,772.1974 737.4816,756.3167 737.3401,832.4484 792.618,848.3292 792.7594,772.1974 
											"/>
					<polyline points="848.0322,788.0768 792.7594,772.1974 792.618,848.3292 847.8907,864.2086 848.0322,788.0768 					"/>
					<polyline fill="#ED1E79" points="74.0227,641.8834 18.7449,626.0026 18.6035,702.1412 73.8813,718.022 74.0227,641.8834 					
						"/>
					<polyline fill="#999999" points="129.2955,657.7628 74.0227,641.8834 73.8813,718.022 129.154,733.9014 129.2955,657.7628 
											"/>
					<polyline fill="#FF7BAC" points="184.573,673.6436 129.2955,657.7628 129.154,733.9014 184.4316,749.7821 184.573,673.6436 
											"/>
					<polyline fill="#662D91" points="239.8509,689.5244 184.573,673.6436 184.4316,749.7821 239.7094,765.6629 239.8509,689.5244 
											"/>
					<polyline fill="#9E005D" points="295.1284,705.4051 239.8509,689.5244 239.7094,765.6629 294.987,781.5436 295.1284,705.4051 
											"/>
					<polyline fill="#998675" points="350.4012,721.2844 295.1284,705.4051 294.987,781.5436 350.2598,797.423 350.4012,721.2844 
											"/>
					<polyline fill="#B3B3B3" points="405.679,737.1652 350.4012,721.2844 350.2598,797.423 405.5376,813.3038 405.679,737.1652 
											"/>
					<polyline fill="#22B573" points="460.9566,753.046 405.679,737.1652 405.5376,813.3038 460.8152,829.1846 460.9566,753.046 
											"/>
					<polyline fill="#00FFFF" points="516.2344,768.9268 460.9566,753.046 460.8152,829.1846 516.093,845.0654 516.2344,768.9268 
											"/>
					<polyline fill="#8CC63F" points="571.512,784.8075 516.2344,768.9268 516.093,845.0654 571.3706,860.9461 571.512,784.8075 
											"/>
					<polyline fill="#009245" points="626.7847,800.6868 571.512,784.8075 571.3706,860.9461 626.6433,876.8254 626.7847,800.6868 
											"/>
					<polyline fill="#FF7BAC" points="682.0626,816.5677 626.7847,800.6868 626.6433,876.8254 681.9212,892.7062 682.0626,816.5677 
											"/>
					<polyline fill="#3FA9F5" points="737.3401,832.4484 682.0626,816.5677 681.9212,892.7062 737.1987,908.587 737.3401,832.4484 
											"/>
					<polyline fill="#7AC943" points="792.618,848.3292 737.3401,832.4484 737.1987,908.587 792.4766,924.4678 792.618,848.3292 
											"/>
					<polyline fill="#006837" points="847.8907,864.2086 792.618,848.3292 792.4766,924.4678 847.7493,940.3472 847.8907,864.2086 
											"/>
					<polyline fill="#D4145A" points="73.8813,718.022 18.6035,702.1412 18.462,778.273 73.7399,794.1538 73.8813,718.022 					"/>
					<polyline fill="#998675" points="129.154,733.9014 73.8813,718.022 73.7399,794.1538 129.0126,810.0331 129.154,733.9014 					
						"/>
					<polyline fill="#534741" points="184.4316,749.7821 129.154,733.9014 129.0126,810.0331 184.2902,825.9139 184.4316,749.7821 
											"/>
					<polyline fill="#999999" points="239.7094,765.6629 184.4316,749.7821 184.2902,825.9139 239.568,841.7947 239.7094,765.6629 
											"/>
					<polyline fill="#009245" points="294.987,781.5436 239.7094,765.6629 239.568,841.7947 294.8456,857.6754 294.987,781.5436 
											"/>
					<polyline fill="#39B54A" points="350.2598,797.423 294.987,781.5436 294.8456,857.6754 350.1183,873.5547 350.2598,797.423 
											"/>
					<polyline fill="#FCEE21" points="405.5376,813.3038 350.2598,797.423 350.1183,873.5547 405.3962,889.4356 405.5376,813.3038 
											"/>
					<polyline fill="#8CC63F" points="460.8152,829.1846 405.5376,813.3038 405.3962,889.4356 460.6738,905.3163 460.8152,829.1846 
											"/>
					<polyline fill="#FCEE21" points="516.093,845.0654 460.8152,829.1846 460.6738,905.3163 515.9516,921.1971 516.093,845.0654 
											"/>
					<polyline fill="#FF00FF" points="571.3706,860.9461 516.093,845.0654 515.9516,921.1971 571.2292,937.0779 571.3706,860.9461 
											"/>
					<polyline fill="#603813" points="626.6433,876.8254 571.3706,860.9461 571.2292,937.0779 626.502,952.9572 626.6433,876.8254 
											"/>
					<polyline fill="#39B54A" points="681.9212,892.7062 626.6433,876.8254 626.502,952.9572 681.7798,968.838 681.9212,892.7062 
											"/>
					<polyline fill="#666666" points="737.1987,908.587 681.9212,892.7062 681.7798,968.838 737.0573,984.7188 737.1987,908.587 
											"/>
					<polyline fill="#F15A24" points="792.4766,924.4678 737.1987,908.587 737.0573,984.7188 792.3352,1000.5995 792.4766,924.4678 
											"/>
					<polyline fill="#D4145A" points="847.7493,940.3472 792.4766,924.4678 792.3352,1000.5995 847.6079,1016.4789 
						847.7493,940.3472 					"/>
					<polyline fill="#00FFFF" points="73.7399,794.1538 18.462,778.273 18.3206,854.4047 73.5985,870.2856 73.7399,794.1538 					
						"/>
					<polyline fill="#FBB03B" points="129.0126,810.0331 73.7399,794.1538 73.5985,870.2856 128.8712,886.1649 129.0126,810.0331 
											"/>
					<polyline fill="#7AC943" points="184.2902,825.9139 129.0126,810.0331 128.8712,886.1649 184.1488,902.0457 184.2902,825.9139 
											"/>
					<polyline fill="#333333" points="239.568,841.7947 184.2902,825.9139 184.1488,902.0457 239.4266,917.9265 239.568,841.7947 
											"/>
					<polyline points="294.8456,857.6754 239.568,841.7947 239.4266,917.9265 294.7042,933.8072 294.8456,857.6754 					"/>
					<polyline fill="#754C24" points="350.1183,873.5547 294.8456,857.6754 294.7042,933.8072 349.977,949.6865 350.1183,873.5547 
											"/>
					<polyline fill="#998675" points="405.3962,889.4356 350.1183,873.5547 349.977,949.6865 405.2548,965.5673 405.3962,889.4356 
											"/>
					<polyline fill="#00FF00" points="460.6738,905.3163 405.3962,889.4356 405.2548,965.5673 460.5324,981.4481 460.6738,905.3163 
											"/>
					<polyline fill="#FF7BAC" points="515.9516,921.1971 460.6738,905.3163 460.5324,981.4481 515.8102,997.3289 515.9516,921.1971 
											"/>
					<polyline fill="#666666" points="571.2292,937.0779 515.9516,921.1971 515.8102,997.3289 571.0878,1013.2096 
						571.2292,937.0779 					"/>
					<polyline fill="#D9E021" points="626.502,952.9572 571.2292,937.0779 571.0878,1013.2096 626.3605,1029.089 626.502,952.9572 
											"/>
					<polyline fill="#C69C6D" points="681.7798,968.838 626.502,952.9572 626.3605,1029.089 681.6384,1044.9697 681.7798,968.838 
											"/>
					<polyline fill="#F15A24" points="737.0573,984.7188 681.7798,968.838 681.6384,1044.9697 736.916,1060.8505 737.0573,984.7188 
											"/>
					<polyline fill="#D9E021" points="792.3352,1000.5995 737.0573,984.7188 736.916,1060.8505 792.1938,1076.7313 
						792.3352,1000.5995 					"/>
					<polyline fill="#0071BC" points="847.6079,1016.4789 792.3352,1000.5995 792.1938,1076.7313 847.4665,1092.6107 
						847.6079,1016.4789 					"/>
					<polyline fill="#D9E021" points="73.5985,870.2856 18.3206,854.4047 18.1792,930.5433 73.4571,946.4241 73.5985,870.2856 					
						"/>
					<polyline fill="#736357" points="128.8712,886.1649 73.5985,870.2856 73.4571,946.4241 128.7298,962.3035 128.8712,886.1649 
											"/>
					<polyline fill="#C1272D" points="184.1488,902.0457 128.8712,886.1649 128.7298,962.3035 184.0074,978.1842 184.1488,902.0457 
											"/>
					<polyline fill="#8CC63F" points="239.4266,917.9265 184.1488,902.0457 184.0074,978.1842 239.2852,994.0651 239.4266,917.9265 
											"/>
					<polyline fill="#736357" points="294.7042,933.8072 239.4266,917.9265 239.2852,994.0651 294.5628,1009.9458 
						294.7042,933.8072 					"/>
					<polyline fill="#ED1C24" points="349.977,949.6865 294.7042,933.8072 294.5628,1009.9458 349.8355,1025.8251 349.977,949.6865 
											"/>
					<polyline fill="#29ABE2" points="405.2548,965.5673 349.977,949.6865 349.8355,1025.8251 405.1134,1041.7059 
						405.2548,965.5673 					"/>
					<polyline fill="#8C6239" points="460.5324,981.4481 405.2548,965.5673 405.1134,1041.7059 460.3909,1057.5867 
						460.5324,981.4481 					"/>
					<polyline fill="#9E005D" points="515.8102,997.3289 460.5324,981.4481 460.3909,1057.5867 515.6688,1073.4675 
						515.8102,997.3289 					"/>
					<polyline fill="#808080" points="571.0878,1013.2096 515.8102,997.3289 515.6688,1073.4675 570.9464,1089.3483 
						571.0878,1013.2096 					"/>
					<polyline fill="#FCEE21" points="626.3605,1029.089 571.0878,1013.2096 570.9464,1089.3483 626.2191,1105.2275 
						626.3605,1029.089 					"/>
					<polyline fill="#9E005D" points="681.6384,1044.9697 626.3605,1029.089 626.2191,1105.2275 681.4969,1121.1084 
						681.6384,1044.9697 					"/>
					<polyline fill="#999999" points="736.916,1060.8505 681.6384,1044.9697 681.4969,1121.1084 736.7745,1136.9891 
						736.916,1060.8505 					"/>
					<polyline fill="#29ABE2" points="792.1938,1076.7313 736.916,1060.8505 736.7745,1136.9891 792.0524,1152.8699 
						792.1938,1076.7313 					"/>
					<polyline fill="#999999" points="847.4665,1092.6107 792.1938,1076.7313 792.0524,1152.8699 847.3251,1168.7493 
						847.4665,1092.6107 					"/>
					<polyline points="73.4571,946.4241 18.1792,930.5433 18.0378,1006.6751 73.3157,1022.5559 73.4571,946.4241 					"/>
					<polyline fill="#666666" points="128.7298,962.3035 73.4571,946.4241 73.3157,1022.5559 128.5884,1038.4353 128.7298,962.3035 
											"/>
					<polyline fill="#998675" points="184.0074,978.1842 128.7298,962.3035 128.5884,1038.4353 183.866,1054.316 184.0074,978.1842 
											"/>
					<polyline fill="#754C24" points="239.2852,994.0651 184.0074,978.1842 183.866,1054.316 239.1438,1070.1968 239.2852,994.0651 
											"/>
					<polyline fill="#006837" points="294.5628,1009.9458 239.2852,994.0651 239.1438,1070.1968 294.4214,1086.0775 
						294.5628,1009.9458 					"/>
					<polyline fill="#9E005D" points="349.8355,1025.8251 294.5628,1009.9458 294.4214,1086.0775 349.6941,1101.9569 
						349.8355,1025.8251 					"/>
					<polyline fill="#39B54A" points="405.1134,1041.7059 349.8355,1025.8251 349.6941,1101.9569 404.972,1117.8376 
						405.1134,1041.7059 					"/>
					<polyline fill="#006837" points="460.3909,1057.5867 405.1134,1041.7059 404.972,1117.8376 460.2495,1133.7184 
						460.3909,1057.5867 					"/>
					<polyline fill="#7AC943" points="515.6688,1073.4675 460.3909,1057.5867 460.2495,1133.7184 515.5274,1149.5992 
						515.6688,1073.4675 					"/>
					<polyline fill="#00FFFF" points="570.9464,1089.3483 515.6688,1073.4675 515.5274,1149.5992 570.8049,1165.48 
						570.9464,1089.3483 					"/>
					<polyline fill="#736357" points="626.2191,1105.2275 570.9464,1089.3483 570.8049,1165.48 626.0777,1181.3594 
						626.2191,1105.2275 					"/>
					<polyline fill="#29ABE2" points="681.4969,1121.1084 626.2191,1105.2275 626.0777,1181.3594 681.3555,1197.2401 
						681.4969,1121.1084 					"/>
					<polyline fill="#2E3192" points="736.7745,1136.9891 681.4969,1121.1084 681.3555,1197.2401 736.6331,1213.1208 
						736.7745,1136.9891 					"/>
					<polyline fill="#FF00FF" points="792.0524,1152.8699 736.7745,1136.9891 736.6331,1213.1208 791.9109,1229.0017 
						792.0524,1152.8699 					"/>
					<polyline fill="#B3B3B3" points="847.3251,1168.7493 792.0524,1152.8699 791.9109,1229.0017 847.1837,1244.881 
						847.3251,1168.7493 					"/>
					<polyline fill="#ED1E79" points="73.3157,1022.5559 18.0378,1006.6751 17.8964,1082.8069 73.1742,1098.6876 73.3157,1022.5559 
											"/>
					<polyline fill="#8C6239" points="128.5884,1038.4353 73.3157,1022.5559 73.1742,1098.6876 128.447,1114.567 
						128.5884,1038.4353 					"/>
					<polyline fill="#0071BC" points="183.866,1054.316 128.5884,1038.4353 128.447,1114.567 183.7246,1130.4478 183.866,1054.316 
											"/>
					<polyline fill="#F15A24" points="239.1438,1070.1968 183.866,1054.316 183.7246,1130.4478 239.0024,1146.3286 
						239.1438,1070.1968 					"/>
					<polyline fill="#CCCCCC" points="294.4214,1086.0775 239.1438,1070.1968 239.0024,1146.3286 294.28,1162.2094 
						294.4214,1086.0775 					"/>
					<polyline fill="#39B54A" points="349.6941,1101.9569 294.4214,1086.0775 294.28,1162.2094 349.5527,1178.0886 
						349.6941,1101.9569 					"/>
					<polyline fill="#3FA9F5" points="404.972,1117.8376 349.6941,1101.9569 349.5527,1178.0886 404.8306,1193.9695 
						404.972,1117.8376 					"/>
					<polyline fill="#736357" points="460.2495,1133.7184 404.972,1117.8376 404.8306,1193.9695 460.1081,1209.8502 
						460.2495,1133.7184 					"/>
					<polyline fill="#7AC943" points="515.5274,1149.5992 460.2495,1133.7184 460.1081,1209.8502 515.386,1225.731 
						515.5274,1149.5992 					"/>
					<polyline fill="#ED1E79" points="570.8049,1165.48 515.5274,1149.5992 515.386,1225.731 570.6635,1241.6117 570.8049,1165.48 
											"/>
					<polyline fill="#00FF00" points="626.0777,1181.3594 570.8049,1165.48 570.6635,1241.6117 625.9363,1257.4911 
						626.0777,1181.3594 					"/>
					<polyline fill="#22B573" points="681.3555,1197.2401 626.0777,1181.3594 625.9363,1257.4911 681.2141,1273.3719 
						681.3555,1197.2401 					"/>
					<polyline fill="#00A99D" points="736.6331,1213.1208 681.3555,1197.2401 681.2141,1273.3719 736.4917,1289.2527 
						736.6331,1213.1208 					"/>
					<polyline fill="#CCCCCC" points="791.9109,1229.0017 736.6331,1213.1208 736.4917,1289.2527 791.7695,1305.1334 
						791.9109,1229.0017 					"/>
					<polyline fill="#00A99D" points="847.1837,1244.881 791.9109,1229.0017 791.7695,1305.1334 847.0423,1321.0128 
						847.1837,1244.881 					"/>
					<polyline fill="#998675" points="73.1742,1098.6876 17.8964,1082.8069 17.755,1158.9454 73.0328,1174.8263 73.1742,1098.6876 
											"/>
					<polyline fill="#7AC943" points="128.447,1114.567 73.1742,1098.6876 73.0328,1174.8263 128.3056,1190.7056 128.447,1114.567 
											"/>
					<polyline fill="#2E3192" points="183.7246,1130.4478 128.447,1114.567 128.3056,1190.7056 183.5831,1206.5863 
						183.7246,1130.4478 					"/>
					<polyline fill="#FF0000" points="239.0024,1146.3286 183.7246,1130.4478 183.5831,1206.5863 238.861,1222.4672 
						239.0024,1146.3286 					"/>
					<polyline fill="#B3B3B3" points="294.28,1162.2094 239.0024,1146.3286 238.861,1222.4672 294.1385,1238.3479 294.28,1162.2094 
											"/>
					<polyline fill="#009245" points="349.5527,1178.0886 294.28,1162.2094 294.1385,1238.3479 349.4113,1254.2273 
						349.5527,1178.0886 					"/>
					<polyline fill="#662D91" points="404.8306,1193.9695 349.5527,1178.0886 349.4113,1254.2273 404.6891,1270.108 
						404.8306,1193.9695 					"/>
					<polyline fill="#B3B3B3" points="460.1081,1209.8502 404.8306,1193.9695 404.6891,1270.108 459.9667,1285.9888 
						460.1081,1209.8502 					"/>
					<polyline fill="#8C6239" points="515.386,1225.731 460.1081,1209.8502 459.9667,1285.9888 515.2446,1301.8696 
						515.386,1225.731 					"/>
					<polyline fill="#CCCCCC" points="570.6635,1241.6117 515.386,1225.731 515.2446,1301.8696 570.5221,1317.7504 
						570.6635,1241.6117 					"/>
					<polyline fill="#39B54A" points="625.9363,1257.4911 570.6635,1241.6117 570.5221,1317.7504 625.7949,1333.6296 
						625.9363,1257.4911 					"/>
					<polyline fill="#C7B299" points="681.2141,1273.3719 625.9363,1257.4911 625.7949,1333.6296 681.0727,1349.5105 
						681.2141,1273.3719 					"/>
					<polyline points="736.4917,1289.2527 681.2141,1273.3719 681.0727,1349.5105 736.3503,1365.3912 736.4917,1289.2527 					"/>
					<polyline fill="#D4145A" points="791.7695,1305.1334 736.4917,1289.2527 736.3503,1365.3912 791.6281,1381.272 
						791.7695,1305.1334 					"/>
					<polyline fill="#9E005D" points="847.0423,1321.0128 791.7695,1305.1334 791.6281,1381.272 846.9009,1397.1514 
						847.0423,1321.0128 					"/>
					<polyline fill="#B3B3B3" points="73.0328,1174.8263 17.755,1158.9454 17.6136,1235.0773 72.8914,1250.958 73.0328,1174.8263 
											"/>
					<polyline fill="#1A1A1A" points="128.3056,1190.7056 73.0328,1174.8263 72.8914,1250.958 128.1642,1266.8374 
						128.3056,1190.7056 					"/>
					<polyline fill="#00FFFF" points="183.5831,1206.5863 128.3056,1190.7056 128.1642,1266.8374 183.4417,1282.7181 
						183.5831,1206.5863 					"/>
					<polyline fill="#736357" points="238.861,1222.4672 183.5831,1206.5863 183.4417,1282.7181 238.7196,1298.5989 
						238.861,1222.4672 					"/>
					<polyline fill="#1A1A1A" points="294.1385,1238.3479 238.861,1222.4672 238.7196,1298.5989 293.9971,1314.4796 
						294.1385,1238.3479 					"/>
					<polyline points="349.4113,1254.2273 294.1385,1238.3479 293.9971,1314.4796 349.2699,1330.359 349.4113,1254.2273 					"/>
					<polyline fill="#CCCCCC" points="404.6891,1270.108 349.4113,1254.2273 349.2699,1330.359 404.5477,1346.2399 
						404.6891,1270.108 					"/>
					<polyline fill="#C69C6D" points="459.9667,1285.9888 404.6891,1270.108 404.5477,1346.2399 459.8253,1362.1206 
						459.9667,1285.9888 					"/>
					<polyline fill="#00FFFF" points="515.2446,1301.8696 459.9667,1285.9888 459.8253,1362.1206 515.1031,1378.0013 
						515.2446,1301.8696 					"/>
					<polyline fill="#00A99D" points="570.5221,1317.7504 515.2446,1301.8696 515.1031,1378.0013 570.3807,1393.8821 
						570.5221,1317.7504 					"/>
					<polyline fill="#FF0000" points="625.7949,1333.6296 570.5221,1317.7504 570.3807,1393.8821 625.6534,1409.7615 
						625.7949,1333.6296 					"/>
					<polyline fill="#534741" points="681.0727,1349.5105 625.7949,1333.6296 625.6534,1409.7615 680.9313,1425.6422 
						681.0727,1349.5105 					"/>
					<polyline fill="#0071BC" points="736.3503,1365.3912 681.0727,1349.5105 680.9313,1425.6422 736.2089,1441.5229 
						736.3503,1365.3912 					"/>
					<polyline fill="#FBB03B" points="791.6281,1381.272 736.3503,1365.3912 736.2089,1441.5229 791.4867,1457.4038 
						791.6281,1381.272 					"/>
					<polyline fill="#00A99D" points="846.9009,1397.1514 791.6281,1381.272 791.4867,1457.4038 846.7595,1473.2832 
						846.9009,1397.1514 					"/>
					<polyline fill="#754C24" points="72.8914,1250.958 17.6136,1235.0773 17.4722,1311.2162 72.75,1327.097 72.8914,1250.958 					
						"/>
					<polyline fill="#FF7BAC" points="128.1642,1266.8374 72.8914,1250.958 72.75,1327.097 128.0227,1342.9763 128.1642,1266.8374 
											"/>
					<polyline fill="#FF0000" points="183.4417,1282.7181 128.1642,1266.8374 128.0227,1342.9763 183.3003,1358.8571 
						183.4417,1282.7181 					"/>
					<polyline fill="#BDCCD4" points="238.7196,1298.5989 183.4417,1282.7181 183.3003,1358.8571 238.5782,1374.7379 
						238.7196,1298.5989 					"/>
					<polyline fill="#8CC63F" points="293.9971,1314.4796 238.7196,1298.5989 238.5782,1374.7379 293.8557,1390.6187 
						293.9971,1314.4796 					"/>
					<polyline fill="#808080" points="349.2699,1330.359 293.9971,1314.4796 293.8557,1390.6187 349.1285,1406.4979 
						349.2699,1330.359 					"/>
					<polyline fill="#7AC943" points="404.5477,1346.2399 349.2699,1330.359 349.1285,1406.4979 404.4063,1422.3788 
						404.5477,1346.2399 					"/>
					<polyline fill="#662D91" points="459.8253,1362.1206 404.5477,1346.2399 404.4063,1422.3788 459.6839,1438.2595 
						459.8253,1362.1206 					"/>
					<polyline fill="#2E3192" points="515.1031,1378.0013 459.8253,1362.1206 459.6839,1438.2595 514.9617,1454.1404 
						515.1031,1378.0013 					"/>
					<polyline fill="#603813" points="570.3807,1393.8821 515.1031,1378.0013 514.9617,1454.1404 570.2393,1470.021 
						570.3807,1393.8821 					"/>
					<polyline fill="#FF1D25" points="625.6534,1409.7615 570.3807,1393.8821 570.2393,1470.021 625.512,1485.9004 
						625.6534,1409.7615 					"/>
					<polyline fill="#FFFF00" points="680.9313,1425.6422 625.6534,1409.7615 625.512,1485.9004 680.7899,1501.7813 
						680.9313,1425.6422 					"/>
					<polyline fill="#A67C52" points="736.2089,1441.5229 680.9313,1425.6422 680.7899,1501.7813 736.0674,1517.662 
						736.2089,1441.5229 					"/>
					<polyline fill="#662D91" points="791.4867,1457.4038 736.2089,1441.5229 736.0674,1517.662 791.3453,1533.5427 
						791.4867,1457.4038 					"/>
					<polyline fill="#A67C52" points="846.7595,1473.2832 791.4867,1457.4038 791.3453,1533.5427 846.618,1549.4221 
						846.7595,1473.2832 					"/>
					<polyline fill="#FF00FF" points="72.75,1327.097 17.4722,1311.2162 17.3307,1387.3479 72.6086,1403.2288 72.75,1327.097 					
						"/>
					<polyline fill="#662D91" points="128.0227,1342.9763 72.75,1327.097 72.6086,1403.2288 127.8813,1419.1082 128.0227,1342.9763 
											"/>
					<polyline fill="#22B573" points="183.3003,1358.8571 128.0227,1342.9763 127.8813,1419.1082 183.1589,1434.9889 
						183.3003,1358.8571 					"/>
					<polyline fill="#999999" points="238.5782,1374.7379 183.3003,1358.8571 183.1589,1434.9889 238.4367,1450.8696 
						238.5782,1374.7379 					"/>
					<polyline fill="#ED1C24" points="293.8557,1390.6187 238.5782,1374.7379 238.4367,1450.8696 293.7143,1466.7504 
						293.8557,1390.6187 					"/>
					<polyline points="349.1285,1406.4979 293.8557,1390.6187 293.7143,1466.7504 348.9871,1482.6298 349.1285,1406.4979 					"/>
					<polyline fill="#333333" points="404.4063,1422.3788 349.1285,1406.4979 348.9871,1482.6298 404.2649,1498.5105 
						404.4063,1422.3788 					"/>
					<polyline fill="#00FF00" points="459.6839,1438.2595 404.4063,1422.3788 404.2649,1498.5105 459.5425,1514.3912 
						459.6839,1438.2595 					"/>
					<polyline fill="#29ABE2" points="514.9617,1454.1404 459.6839,1438.2595 459.5425,1514.3912 514.8203,1530.2721 
						514.9617,1454.1404 					"/>
					<polyline fill="#333333" points="570.2393,1470.021 514.9617,1454.1404 514.8203,1530.2721 570.0979,1546.1528 
						570.2393,1470.021 					"/>
					<polyline fill="#2E3192" points="625.512,1485.9004 570.2393,1470.021 570.0979,1546.1528 625.3706,1562.0322 
						625.512,1485.9004 					"/>
					<polyline fill="#3FA9F5" points="680.7899,1501.7813 625.512,1485.9004 625.3706,1562.0322 680.6485,1577.913 
						680.7899,1501.7813 					"/>
					<polyline fill="#FF0000" points="736.0674,1517.662 680.7899,1501.7813 680.6485,1577.913 735.926,1593.7937 
						736.0674,1517.662 					"/>
					<polyline fill="#808080" points="791.3453,1533.5427 736.0674,1517.662 735.926,1593.7937 791.2039,1609.6746 
						791.3453,1533.5427 					"/>
					<polyline fill="#A67C52" points="846.618,1549.4221 791.3453,1533.5427 791.2039,1609.6746 846.4766,1625.5538 
						846.618,1549.4221 					"/>
				</g>
			</g>
		</g>
	</g>
</g>
</svg>
